<svg width="41" height="33" viewBox="0 0 41 33" fill="none" xmlns="http://www.w3.org/2000/svg">
<g clip-path="url(#clip0_5_1490)">
<path d="M20.5107 0.0200811C25.7605 0.0200811 31.0119 0.0681341 36.2617 -7.01005e-05C38.9734 -0.0341722 41.0228 2.02126 40.9924 4.77578C40.9086 12.5216 40.8934 20.2705 40.9985 28.0164C41.0396 31.0205 38.9567 33.0185 36.0699 32.9999C25.6707 32.9317 15.2699 32.9751 4.87073 32.972C1.71899 32.972 0 31.2049 0 27.9776C0 20.2318 0 12.4844 0.00152258 4.73702C0.00152258 1.8833 1.81644 0.0231813 4.60732 0.0216312C9.90894 0.016981 15.209 0.0200811 20.5107 0.0200811ZM36.6302 8.4154C36.3348 8.69287 36.1369 8.87268 35.945 9.05714C31.6498 13.1912 27.3638 17.3347 23.0579 21.4579C20.8806 23.5428 18.9378 23.4932 16.8169 21.3587C13.1916 17.7082 9.56027 14.0624 5.9411 10.4057C5.46453 9.9252 5.04278 9.38731 4.59666 8.87578C4.52815 8.93313 4.45963 8.98894 4.38959 9.04629C4.38959 15.5272 4.38959 22.0082 4.38959 28.5C15.1679 28.5 25.8854 28.5 36.6287 28.5C36.6302 21.8284 36.6302 15.2079 36.6302 8.4154ZM19.9945 18.3624C24.8013 13.7338 29.5441 9.1672 34.3783 4.51071C24.9216 4.51071 15.614 4.51071 6.21669 4.51071C10.8453 9.1641 15.3887 13.7322 19.9945 18.3624Z" fill="white"/>
</g>
<defs>
<clipPath id="clip0_5_1490">
<rect width="41" height="33" fill="white"/>
</clipPath>
</defs>
</svg>
