<svg width="35" height="50" viewBox="0 0 35 50" fill="none" xmlns="http://www.w3.org/2000/svg">
<g clip-path="url(#clip0_5_1474)">
<path d="M17.4868 49.9996C16.1211 48.4772 14.7842 47.038 13.5052 45.5482C11.3157 42.9952 9.28871 40.312 7.43159 37.5059C5.15534 34.0562 3.16453 30.4581 1.7482 26.5672C0.841311 24.0721 0.20902 21.5119 0.0392046 18.8468C-0.275134 13.9289 1.18455 9.61125 4.4255 5.92643C6.87517 3.1384 9.92823 1.29057 13.5522 0.469713C18.466 -0.640434 23.0582 0.216585 27.2422 3.00461C30.3386 5.06941 32.5462 7.88998 33.8722 11.3831C34.7249 13.6251 35.0862 15.9467 34.9814 18.3405C34.8875 20.4921 34.472 22.5895 33.8397 24.647C33.1387 26.936 32.1993 29.1202 31.1262 31.2573C29.8544 33.7922 28.3767 36.2041 26.7797 38.5402C24.872 41.3282 22.8017 43.9933 20.5796 46.539C19.586 47.6781 18.5635 48.7955 17.4868 49.9996ZM11.3951 17.5522C11.406 20.7236 13.9026 23.6165 17.4471 23.6454C21.0132 23.6743 23.5893 21.0743 23.5965 17.5161C23.6002 14.3917 20.7856 11.4591 17.5663 11.4302C14.2386 11.3976 11.3699 14.0735 11.3951 17.5522Z" fill="white"/>
</g>
<defs>
<clipPath id="clip0_5_1474">
<rect width="35" height="50" fill="white"/>
</clipPath>
</defs>
</svg>
