<svg width="35" height="35" viewBox="0 0 35 35" fill="none" xmlns="http://www.w3.org/2000/svg">
<g clip-path="url(#clip0_5_1485)">
<path d="M0 5.64673C0.048788 5.35137 0.0921552 5.05601 0.149075 4.76334C0.417409 3.402 1.10586 2.29038 2.18733 1.42041C2.78634 0.939785 3.43143 0.526283 4.15783 0.257775C5.57268 -0.260445 6.84388 0.0188028 7.99311 0.950525C8.63819 1.47412 9.16944 2.09974 9.66816 2.75758C10.1777 3.42885 10.69 4.09475 11.1887 4.77139C11.6495 5.39702 12.0642 6.05217 12.3271 6.79057C12.712 7.87534 12.4979 8.85808 11.8203 9.75758C11.6387 9.99924 11.4408 10.2302 11.2267 10.4396C10.7225 10.9283 10.5328 11.5405 10.5003 12.2091C10.4569 13.1596 10.7415 14.0403 11.1399 14.8888C11.8338 16.3656 12.8313 17.6356 13.891 18.8627C15.1541 20.3234 16.5961 21.5773 18.1871 22.6701C19.2469 23.3978 20.3609 24.0315 21.6185 24.3644C22.3341 24.5551 23.0578 24.6168 23.7815 24.3966C24.1148 24.2946 24.3913 24.1174 24.6163 23.8381C25.1557 23.1722 25.836 22.7507 26.7223 22.6916C27.3565 22.6513 27.9501 22.791 28.5356 23.0111C29.6713 23.4381 30.6714 24.0959 31.6255 24.8209C32.2896 25.3257 32.9428 25.8546 33.5608 26.4158C34.1164 26.9206 34.5555 27.5274 34.7994 28.2497C34.8889 28.5155 34.9322 28.7948 34.9946 29.0687C34.9946 29.2754 34.9946 29.4795 34.9946 29.6862C34.9295 29.9574 34.8834 30.2367 34.794 30.4998C34.5555 31.2221 34.1462 31.8612 33.7478 32.5029C33.4415 32.9969 33.0566 33.4266 32.6202 33.8159C31.883 34.4737 30.9831 34.7369 30.0345 34.8872C29.7309 34.9356 29.4273 34.9651 29.121 35.0027C28.8608 35.0027 28.6033 35.0027 28.3431 35.0027C28.1399 34.9785 27.9393 34.9517 27.736 34.9329C26.6816 34.8389 25.6625 34.5838 24.6678 34.2401C23.7462 33.9206 22.8545 33.5366 22.0088 33.0453C21.1794 32.5646 20.3256 32.1216 19.499 31.6356C18.2061 30.8784 16.9999 29.995 15.8697 29.0177C14.6418 27.957 13.4303 26.8776 12.2539 25.7607C11.2375 24.794 10.2645 23.7791 9.29683 22.7614C8.42136 21.8378 7.56215 20.898 6.73275 19.934C5.59436 18.6157 4.57523 17.206 3.62387 15.748C2.63726 14.2309 1.75908 12.6548 1.07605 10.9766C0.628824 9.87841 0.271045 8.75336 0.111128 7.57193C0.0758925 7.31416 0.0379463 7.05908 0 6.80131C0 6.41735 0 6.03069 0 5.64673Z" fill="white"/>
</g>
<defs>
<clipPath id="clip0_5_1485">
<rect width="35" height="35" fill="white"/>
</clipPath>
</defs>
</svg>
