<svg width="47" height="26" viewBox="0 0 47 26" fill="none" xmlns="http://www.w3.org/2000/svg">
<path d="M41.0453 25.9971C40.0275 25.9971 39.0088 25.9916 37.991 25.9971C37.6165 26.0141 37.2423 25.9569 36.891 25.8288C36.5498 25.689 36.1938 25.5857 35.8713 25.39C35.4847 25.1602 35.1161 24.9026 34.7685 24.6194C34.447 24.3505 34.1441 24.061 33.8619 23.7528C33.3342 23.1854 32.8124 22.6128 32.2965 22.035C31.8527 21.5149 31.3677 21.0298 30.8459 20.5842C30.4721 20.2761 30.0674 20.0001 29.5655 19.9096C29.4451 19.8875 29.3212 19.8922 29.2029 19.9233C28.9537 19.9887 28.7246 20.1126 28.5356 20.2844C28.3076 20.4846 28.124 20.7286 27.9963 21.0011C27.9029 21.1958 27.8477 21.4042 27.7384 21.5916C27.7119 21.6459 27.6942 21.7039 27.6861 21.7635C27.6586 21.9049 27.6208 22.0442 27.573 22.1804C27.5085 22.3568 27.5216 22.546 27.4851 22.7289C27.3877 23.2597 27.3451 23.7987 27.358 24.3378C27.3539 24.6259 27.2843 24.9094 27.1543 25.1679C27.1032 25.2907 27.0264 25.4016 26.9286 25.4935C26.8309 25.5853 26.7145 25.6559 26.587 25.7009C26.4422 25.7504 26.3018 25.8116 26.1673 25.8837C26.0059 25.9596 25.8275 25.9945 25.6486 25.9852C24.8891 25.9888 24.1286 25.9888 23.3673 25.9852C22.9813 25.9852 22.5943 25.9852 22.2083 25.9651C21.6702 25.938 21.1358 25.8622 20.612 25.7383C20.4929 25.7091 20.3717 25.6889 20.2494 25.678C20.0792 25.6591 19.911 25.6261 19.7466 25.5793C19.4316 25.5061 19.1298 25.391 18.812 25.3215C18.6048 25.2705 18.4021 25.2039 18.2054 25.1222C18.1045 25.0792 18.0001 25.0443 17.8933 25.018C17.7231 24.97 17.5586 24.9044 17.4026 24.8223C17.1035 24.6861 16.7979 24.5618 16.5007 24.421C16.2587 24.3058 16.0138 24.1934 15.7801 24.0636C15.3614 23.8295 14.9297 23.6147 14.5437 23.3322C14.5047 23.3029 14.4642 23.2758 14.4222 23.2509C13.9045 22.931 13.4113 22.5747 12.9464 22.1849C12.4831 21.8111 12.041 21.4129 11.6221 20.9919C11.166 20.5349 10.7221 20.0613 10.3015 19.5677C9.81457 18.9972 9.33418 18.4213 8.88651 17.8216C8.43883 17.2219 7.96966 16.6213 7.56217 15.9868C7.36123 15.6724 7.13132 15.3762 6.93319 15.0599C6.68365 14.6631 6.43878 14.2618 6.17896 13.8714C5.95559 13.5341 5.77521 13.1721 5.54717 12.8393C5.28735 12.4609 5.09389 12.0458 4.85089 11.6601C4.60789 11.2743 4.4191 10.8958 4.20414 10.5128C3.9546 10.0667 3.69665 9.62511 3.44992 9.17807C3.3116 8.92576 3.1929 8.6634 3.05925 8.40743C2.99009 8.27487 2.90318 8.15146 2.83869 8.01525C2.74523 7.81687 2.63027 7.62855 2.53775 7.42743C2.46906 7.26805 2.3904 7.11296 2.30223 6.96303C2.15736 6.72992 2.05082 6.47304 1.92838 6.22621C1.83492 6.04337 1.75455 5.86054 1.65548 5.6777C1.59193 5.56069 1.548 5.43636 1.48725 5.31843C1.34332 5.03595 1.22369 4.74067 1.0807 4.45728C0.980697 4.25891 0.893779 4.05505 0.791907 3.8585C0.65452 3.59156 0.555452 3.30542 0.418066 3.03574C0.291362 2.77024 0.197247 2.491 0.137685 2.20384C0.105339 2.09324 0.102442 1.97639 0.129268 1.86439C0.156095 1.75239 0.211755 1.64896 0.290959 1.56392C0.42277 1.40421 0.607041 1.29406 0.812468 1.25219C0.891182 1.24218 0.968776 1.22504 1.04425 1.20099C1.25605 1.13792 1.47731 1.11071 1.69847 1.12055C3.84557 1.12055 5.99235 1.12055 8.13883 1.12055C8.26681 1.11614 8.39428 1.13858 8.51267 1.18637C8.60613 1.2275 8.71267 1.24305 8.81174 1.27778C9.21361 1.40138 9.54944 1.67501 9.74634 2.03929C9.94822 2.40496 10.0921 2.788 10.2632 3.16281C10.3781 3.41512 10.4641 3.67749 10.5809 3.92706C10.6426 4.05687 10.7071 4.1876 10.7763 4.31193C10.9473 4.61635 11.0641 4.94637 11.2333 5.24987C11.3912 5.53327 11.5137 5.83129 11.6698 6.11742C11.9389 6.62753 12.2305 7.12301 12.5109 7.63038C12.6361 7.85618 12.7913 8.06736 12.9221 8.28859C13.1147 8.60855 13.3062 8.92851 13.5137 9.23933C13.7446 9.5858 13.9698 9.93501 14.2072 10.2769C14.4109 10.5685 14.6259 10.8528 14.8399 11.1381C15.1075 11.4971 15.4054 11.8335 15.7306 12.1437C16.0045 12.4108 16.3281 12.6243 16.6839 12.7726C16.8528 12.836 17.0366 12.8512 17.214 12.8164C17.3913 12.7816 17.555 12.6983 17.6858 12.5761C17.8613 12.3772 17.9993 12.1493 18.0933 11.9032C18.2353 11.5589 18.3269 11.1967 18.3653 10.8272C18.4167 10.4186 18.4989 10.0118 18.5204 9.5986C18.5204 9.56934 18.526 9.53917 18.526 9.50718C18.5325 8.88371 18.5765 8.26025 18.554 7.63678C18.5363 7.15684 18.5456 6.6769 18.5307 6.19695C18.5204 5.87974 18.4924 5.56343 18.4886 5.2453C18.4886 5.07892 18.4213 4.91803 18.412 4.74982C18.3902 4.37222 18.3202 3.99877 18.2036 3.63818C18.0671 3.21035 17.8587 2.81543 17.5064 2.51558C17.3282 2.36997 17.1338 2.24454 16.9269 2.14168C16.7176 2.03289 16.4895 1.98901 16.2783 1.89394C16.1745 1.85765 16.0651 1.8394 15.9549 1.84C15.6745 1.81715 15.6325 1.73853 15.7353 1.4917C15.8287 1.2723 16.0073 1.12603 16.1839 0.97702C16.3991 0.780445 16.6537 0.629771 16.9316 0.53456C17.2166 0.450456 17.4821 0.301446 17.7886 0.284077C17.8978 0.270158 18.0052 0.245345 18.1092 0.210028C18.4139 0.126838 18.7279 0.131409 19.0382 0.0975848C20.1008 -0.0176012 21.1681 0.00159672 22.2345 0.000682545C22.6513 0.000682545 23.07 -0.00571706 23.485 0.0217082C24.0048 0.0467782 24.5227 0.0998815 25.0365 0.180775C25.2888 0.225569 25.5439 0.272192 25.7907 0.328871C26.1365 0.420288 26.4963 0.511706 26.7589 0.774988C26.9616 0.973074 27.1176 1.21206 27.216 1.47525C27.4029 1.97713 27.416 2.49455 27.4318 3.01289C27.4421 3.3429 27.4468 3.67383 27.4262 4.00294C27.3758 4.77541 27.3627 5.54789 27.3496 6.32128C27.3356 7.13672 27.33 7.95217 27.3038 8.76761C27.2935 9.10951 27.2832 9.4505 27.2804 9.7924C27.2747 10.2958 27.3169 10.7987 27.4066 11.2944C27.4378 11.5201 27.5144 11.7376 27.6318 11.9343C27.687 12.0193 27.701 12.1226 27.7636 12.2086C27.871 12.3462 27.9908 12.474 28.1216 12.5907C28.237 12.6999 28.39 12.7629 28.5506 12.7671C28.7471 12.7783 28.9426 12.7311 29.1113 12.6318C29.3733 12.4761 29.6166 12.2921 29.8366 12.0833C30.2814 11.6689 30.6859 11.2151 31.045 10.7276C31.131 10.6115 31.217 10.4936 31.3123 10.3848C31.5179 10.1526 31.6572 9.8765 31.8366 9.62694C32.103 9.25395 32.3525 8.86908 32.6011 8.48422C32.746 8.26207 32.8684 8.02713 33.0133 7.80499C33.1582 7.58284 33.2993 7.35887 33.4236 7.12576C33.5591 6.87162 33.704 6.62022 33.8414 6.3679C34.0015 6.08505 34.1466 5.79425 34.2759 5.4967C34.3825 5.24804 34.5348 5.02133 34.6376 4.77358C34.7881 4.4134 34.9881 4.07516 35.1236 3.71131C35.1993 3.50928 35.29 3.31182 35.3722 3.11436C35.4425 2.91724 35.5252 2.72459 35.6199 2.53752C35.6894 2.39776 35.7475 2.25288 35.7937 2.1042C35.909 1.81329 36.0906 1.55192 36.3246 1.33995C36.3377 1.32806 36.3508 1.31069 36.3667 1.30612C36.5723 1.25127 36.7536 1.12329 36.976 1.12329C37.3265 1.12329 37.676 1.12329 38.0256 1.12329C40.1534 1.12329 42.2821 1.12329 44.4117 1.12329C44.6136 1.12329 44.8145 1.10318 45.0173 1.12329C45.1642 1.12941 45.3103 1.14807 45.4538 1.17905C45.608 1.21928 45.7669 1.23756 45.9211 1.27047C46.1754 1.32101 46.4055 1.45248 46.5753 1.64437C46.7032 1.78388 46.7743 1.96438 46.7753 2.15173C46.7688 2.39607 46.7327 2.6388 46.6679 2.87485C46.5987 3.11893 46.5164 3.35479 46.4258 3.58882C46.3697 3.73417 46.2987 3.87312 46.2286 4.01299C46.0753 4.31924 45.9276 4.62914 45.7613 4.92717C45.6473 5.13103 45.5127 5.32483 45.3874 5.52412C45.0192 6.11011 44.6211 6.6769 44.2248 7.24551C43.7734 7.89458 43.2902 8.51713 42.8117 9.15065C42.5182 9.54192 42.2051 9.91947 41.9042 10.3053C41.6032 10.691 41.3219 11.075 41.0172 11.4489C40.6705 11.8758 40.363 12.3283 40.0284 12.7662C39.8022 13.0563 39.6009 13.3642 39.4265 13.6868C39.2396 14.0118 39.136 14.3763 39.1247 14.7491C39.1247 15.0078 39.1621 15.261 39.3284 15.4804C39.3901 15.5618 39.4004 15.6678 39.4574 15.7546C39.6443 16.0481 39.9023 16.2803 40.1303 16.5381C40.4892 16.9412 40.9163 17.2758 41.3042 17.6497C41.4517 17.8021 41.6131 17.9411 41.7864 18.0648C41.8199 18.0905 41.8512 18.1189 41.8799 18.1498L43.3519 19.5814C43.6155 19.8313 43.8651 20.095 44.0996 20.3712C44.2042 20.4992 44.3426 20.5915 44.4482 20.7168C44.7229 21.045 44.9996 21.3722 45.2725 21.7032C45.7399 22.2596 46.147 22.8619 46.4875 23.5004C46.6744 23.8551 46.8174 24.2162 46.7679 24.6304C46.7479 24.8218 46.6752 25.0044 46.5576 25.1588C46.3691 25.4199 46.0951 25.6102 45.7809 25.6981C45.6052 25.7475 45.4295 25.8032 45.2585 25.8654C44.973 25.9575 44.6728 25.9984 44.3725 25.9861C43.2622 25.9861 42.1518 25.9861 41.0415 25.9861L41.0453 25.9971Z" fill="white"/>
</svg>
