<svg width="221" height="153" viewBox="0 0 221 153" fill="none" xmlns="http://www.w3.org/2000/svg">
<g clip-path="url(#clip0_5_53)">
<path d="M50.2256 124.939H57.3643V135.863H49.5118L48.4118 151.894H42.2056L43.3055 135.863H35.2272L34.1272 151.894H27.9719L29.0719 135.863H21.8749V124.939H29.7857L30.944 108.704H23.747V97.78H31.6578L32.7578 81.7495H38.9058L37.8058 97.78H45.8769L46.9768 81.7495H53.1248L52.0249 97.78H59.1635L59.2145 108.704H51.3256L50.2256 124.939ZM44.0194 124.939L45.1703 108.704H37.092L35.941 124.939H44.0194Z" fill="white"/>
<path d="M95.039 136.867H77.185L73.7759 151.894H64.6632L81.8033 81.7495H90.5955L107.794 151.894H98.4553L95.039 136.867ZM92.2418 124.544L86.1448 97.6847L80.0478 124.544H92.2418Z" fill="white"/>
<path d="M147.501 81.7568V151.901H138.709V94.9886H125.524L125.247 109.62C125.065 119.569 124.621 127.643 123.929 133.819C123.237 140.003 122.071 144.743 120.44 148.047C118.808 151.352 116.528 153.007 113.599 153.007C112.39 153.007 110.926 152.641 109.207 151.908L109.753 138.178C110.227 138.45 110.759 138.581 111.349 138.581C113.476 138.581 114.954 136.296 115.799 131.716C116.644 127.145 117.176 119.979 117.395 110.22L117.941 81.7642H147.501V81.7568Z" fill="white"/>
<path d="M184.199 94.9812H165.908L165.967 151.894H157.124V81.7495H184.265L184.199 94.9812Z" fill="white"/>
<path d="M208.26 136.867H190.406L186.997 151.894H177.877L195.017 81.7495H203.809L221.007 151.894H211.669L208.26 136.867ZM205.455 124.544L199.358 97.6847L193.261 124.544H205.455Z" fill="white"/>
<path d="M0.233093 143.307H10.5696V145.197H1.72639V150.033H10.5696V151.901H0.233093V143.307Z" fill="white"/>
<path d="M3.60575 140.237C2.28 140.237 1.21649 140.281 0.233099 140.325V138.625L2.0032 138.537V138.493C0.750288 137.724 0 136.501 0 134.801C0 132.288 2.11246 130.398 5.25202 130.398C8.96704 130.398 10.8027 132.676 10.8027 135.123C10.8027 136.501 10.2054 137.702 9.17829 138.325V138.369H14.7945V140.237H3.60575ZM6.36652 138.369C6.64333 138.369 6.89828 138.325 7.13867 138.281C8.44257 137.937 9.33854 136.801 9.33854 135.446C9.33854 133.445 7.71413 132.288 5.34672 132.288C3.27796 132.288 1.50058 133.387 1.50058 135.38C1.50058 136.669 2.41841 137.871 3.83157 138.237C4.06467 138.303 4.34147 138.369 4.60371 138.369H6.36652Z" fill="white"/>
<path d="M5.31758 118.609C9.14186 118.609 10.8027 121.276 10.8027 123.789C10.8027 126.603 8.75579 128.771 5.48512 128.771C2.02505 128.771 0 126.493 0 123.613C0 120.631 2.15617 118.609 5.31758 118.609ZM5.42684 126.859C7.69228 126.859 9.39681 125.547 9.39681 123.701C9.39681 121.899 7.70685 120.543 5.38314 120.543C3.63489 120.543 1.41316 121.423 1.41316 123.657C1.41316 125.892 3.46007 126.859 5.42684 126.859Z" fill="white"/>
<path d="M5.74733 115.173C8.28957 115.129 9.33124 113.495 9.33124 111.605C9.33124 110.25 9.09814 109.436 8.79948 108.726L10.1471 108.403C10.4457 109.07 10.7881 110.206 10.7881 111.862C10.7881 115.063 8.6975 116.975 5.57979 116.975C2.46209 116.975 0.00726318 115.129 0.00726318 112.103C0.00726318 108.711 2.97199 107.81 4.87321 107.81C5.25928 107.81 5.55794 107.854 5.74733 107.876V115.173ZM4.39973 109.634C3.20509 109.612 1.34758 110.125 1.34758 112.257C1.34758 114.169 3.09583 115.005 4.39973 115.159V109.634Z" fill="white"/>
<path d="M0.233093 103.597H4.72025V103.143L0.233093 99.2306V96.9301L4.90965 101.465C5.07719 99.7874 6.19169 98.7837 8.0492 97.9631C8.73393 97.6847 9.73917 97.3184 10.5696 96.8495V98.8276C10.118 99.1061 9.3094 99.4724 8.45713 99.7948C6.78901 100.505 6.02415 101.473 6.02415 103.231V103.597H10.5696V105.465H0.233093V103.597Z" fill="white"/>
<path d="M0.233093 87.7939H1.72639V91.0395H10.5696V92.9078H1.72639V96.1535H0.233093V87.7939Z" fill="white"/>
<path d="M119.383 8.31562L118.4 12.0448H117.14L120.352 0.190491H121.824L125.051 12.0448H123.747L122.734 8.31562H119.383ZM122.486 7.12139L121.561 3.70723C121.35 2.93061 121.212 2.22727 121.073 1.5459H121.044C120.906 2.24925 120.753 2.96725 120.571 3.69257L119.646 7.12139H122.486Z" fill="white"/>
<path d="M127.644 0.190491V5.45094H128.022L131.264 0.190491H132.735L129.159 5.62678C130.718 5.89053 131.322 7.08476 131.81 8.68927C132.16 9.90547 132.43 10.9898 132.845 12.0448H131.526C131.191 11.2389 130.922 10.1839 130.674 9.24609C130.237 7.67821 129.632 6.60853 128.037 6.60853H127.644V12.0448H126.435V0.190491H127.644Z" fill="white"/>
<path d="M140.384 11.6565C139.932 11.9349 139.036 12.2207 137.886 12.2207C135.219 12.2207 133.216 10.1106 133.216 6.22755C133.216 2.52033 135.219 0 138.155 0C139.335 0 140.078 0.315041 140.399 0.52751L140.107 1.77302C139.641 1.49461 138.985 1.28214 138.199 1.28214C135.984 1.28214 134.513 3.05516 134.513 6.16894C134.513 9.07025 135.846 10.9312 138.148 10.9312C138.891 10.9312 139.648 10.7407 140.144 10.4403L140.384 11.6565Z" fill="white"/>
<path d="M146.809 6.49131H143.13V10.7627H147.224V12.0448H141.906V0.190491H147.013V1.47263H143.13V5.21649H146.809V6.49131Z" fill="white"/>
<path d="M155.39 0.190491V12.0448H154.159V1.47996H151.034V5.06996C151.034 7.63425 150.946 10.5062 149.621 11.6272C149.271 11.9056 148.725 12.1914 148.178 12.1914L148.025 10.9605C148.404 10.8726 148.798 10.5942 149.023 10.3304C149.781 9.39994 149.854 7.09208 149.854 5.19451V0.190491H155.39Z" fill="white"/>
<path d="M162.405 6.49131H158.726V10.7627H162.82V12.0448H157.502V0.190491H162.609V1.47263H158.726V5.21649H162.405V6.49131Z" fill="white"/>
<path d="M164.408 0.337047C164.998 0.212496 165.77 0.109924 166.753 0.109924C167.963 0.109924 168.844 0.461598 169.405 1.09168C169.922 1.65582 170.235 2.51303 170.235 3.56805C170.235 4.63772 169.98 5.4876 169.507 6.10303C168.859 6.96756 167.81 7.40715 166.615 7.40715C166.251 7.40715 165.916 7.3925 165.632 7.30458V12.0522H164.408V0.337047ZM165.632 6.05174C165.901 6.13966 166.236 6.17629 166.644 6.17629C168.116 6.17629 169.012 5.28246 169.012 3.64131C169.012 2.07343 168.13 1.3188 166.783 1.3188C166.251 1.3188 165.843 1.37009 165.632 1.44335V6.05174Z" fill="white"/>
<path d="M172.224 8.31562L171.241 12.0448H169.98L173.193 0.190491H174.664L177.891 12.0448H176.587L175.575 8.31562H172.224ZM175.327 7.12139L174.402 3.70723C174.191 2.93061 174.052 2.22727 173.914 1.5459H173.885C173.746 2.24925 173.593 2.96725 173.411 3.69257L172.486 7.12139H175.327Z" fill="white"/>
<path d="M180.455 1.49461H177.578V0.190491H184.578V1.49461H181.686V12.0448H180.455V1.49461Z" fill="white"/>
<path d="M193.225 5.99311C193.225 10.074 191.243 12.2353 188.832 12.2353C186.334 12.2353 184.578 9.81023 184.578 6.22023C184.578 2.45439 186.443 -0.00732422 188.971 -0.00732422C191.557 2.31434e-06 193.225 2.47637 193.225 5.99311ZM185.889 6.19092C185.889 8.7259 186.982 10.9898 188.905 10.9898C190.843 10.9898 191.935 8.75521 191.935 6.06637C191.935 3.70723 190.952 1.24551 188.92 1.24551C186.895 1.24551 185.889 3.59 185.889 6.19092Z" fill="white"/>
<path d="M194.805 0.337047C195.396 0.212496 196.168 0.109924 197.151 0.109924C198.36 0.109924 199.242 0.461598 199.803 1.09168C200.32 1.65582 200.633 2.51303 200.633 3.56805C200.633 4.63772 200.378 5.4876 199.905 6.10303C199.256 6.96756 198.207 7.40715 197.013 7.40715C196.648 7.40715 196.313 7.3925 196.029 7.30458V12.0522H194.805V0.337047ZM196.029 6.05174C196.299 6.13966 196.634 6.17629 197.042 6.17629C198.513 6.17629 199.409 5.28246 199.409 3.64131C199.409 2.07343 198.528 1.3188 197.18 1.3188C196.648 1.3188 196.24 1.37009 196.029 1.44335V6.05174Z" fill="white"/>
<path d="M124.067 21.2909V33.1452H122.836V22.5804H119.711V26.1704C119.711 28.7347 119.624 31.6067 118.298 32.7276C117.948 33.006 117.402 33.2918 116.856 33.2918L116.703 32.0609C117.081 31.973 117.475 31.6946 117.701 31.4308C118.458 30.5003 118.531 28.1925 118.531 26.2949V21.2982H124.067V21.2909Z" fill="white"/>
<path d="M127.338 21.2909V26.2876C127.338 28.1705 127.309 29.7164 127.229 31.2989L127.258 31.3136C127.731 30.0827 128.321 28.8006 129.013 27.3939L132.073 21.2909H133.296V33.1452H132.145V28.0972C132.145 26.1777 132.16 24.771 132.255 23.2764L132.211 23.2617C131.745 24.5659 131.104 25.9359 130.455 27.2547L127.498 33.1452H126.194V21.2909H127.338Z" fill="white"/>
<path d="M141.885 21.2909V31.8924L142.715 31.929L142.628 35.9879H141.673L141.586 33.1379H135.62L135.533 35.9879H134.578L134.491 31.929L135.205 31.8924C135.555 31.0865 135.904 30.2219 136.13 29.2915C136.451 27.9214 136.582 26.3389 136.582 24.2948V21.2909H141.885ZM137.733 24.793C137.733 26.6905 137.594 28.2951 137.252 29.6285C137.055 30.4564 136.764 31.2477 136.48 31.8777H140.661V22.5584H137.733V24.793Z" fill="white"/>
<path d="M149.147 27.5917H145.469V31.8631H149.562V33.1452H144.245V21.2909H149.351V22.573H145.469V26.3169H149.147V27.5917Z" fill="white"/>
<path d="M151.158 21.4374C151.748 21.3129 152.52 21.2103 153.503 21.2103C154.712 21.2103 155.594 21.562 156.155 22.1921C156.672 22.7562 156.985 23.6134 156.985 24.6684C156.985 25.7381 156.73 26.588 156.257 27.2034C155.608 28.068 154.559 28.5076 153.365 28.5076C153.001 28.5076 152.665 28.4929 152.381 28.405V33.1526H151.158V21.4374ZM152.374 27.1521C152.644 27.2401 152.979 27.2767 153.387 27.2767C154.858 27.2767 155.754 26.3829 155.754 24.7417C155.754 23.1738 154.873 22.4192 153.525 22.4192C152.993 22.4192 152.585 22.4705 152.374 22.5438V27.1521Z" fill="white"/>
<path d="M166.586 27.0935C166.586 31.1744 164.605 33.3357 162.193 33.3357C159.695 33.3357 157.939 30.9106 157.939 27.3206C157.939 23.5548 159.804 21.0931 162.332 21.0931C164.918 21.1004 166.586 23.5768 166.586 27.0935ZM159.251 27.2913C159.251 29.8263 160.343 32.0902 162.266 32.0902C164.204 32.0902 165.297 29.8556 165.297 27.1668C165.297 24.8076 164.313 22.3459 162.281 22.3459C160.256 22.3459 159.251 24.6904 159.251 27.2913Z" fill="white"/>
<path d="M168.174 21.4521C168.706 21.3129 169.551 21.203 170.403 21.203C171.627 21.203 172.406 21.4668 172.996 22.0675C173.484 22.5218 173.783 23.2251 173.783 24.1629C173.783 25.3059 173.178 26.3096 172.18 26.7638V26.8005C173.076 27.0789 174.132 28.0167 174.132 29.775C174.132 30.7934 173.812 31.57 173.331 32.1488C172.668 32.9035 171.605 33.2551 170.061 33.2551C169.216 33.2551 168.574 33.1819 168.167 33.1159V21.4521H168.174ZM169.39 26.3023H170.498C171.787 26.3023 172.544 25.4597 172.544 24.3168C172.544 22.9247 171.699 22.3826 170.468 22.3826C169.908 22.3826 169.587 22.4339 169.39 22.4851V26.3023ZM169.39 31.9877C169.631 32.0389 169.98 32.0609 170.417 32.0609C171.678 32.0609 172.843 31.4821 172.843 29.7604C172.843 28.1412 171.736 27.4745 170.403 27.4745H169.39V31.9877Z" fill="white"/>
<path d="M179.894 21.2909V26.2876C179.894 28.1705 179.865 29.7164 179.785 31.2989L179.814 31.3136C180.288 30.0827 180.878 28.8006 181.57 27.3939L184.629 21.2909H185.853V33.1452H184.702V28.0972C184.702 26.1777 184.717 24.771 184.811 23.2764L184.768 23.2617C184.301 24.5659 183.66 25.9359 183.012 27.2547L180.055 33.1452H178.751V21.2909H179.894Z" fill="white"/>
<path d="M122.88 42.3914V43.6735H119.077V54.2384H117.854V42.3914H122.88Z" fill="white"/>
<path d="M123.929 42.5379C124.519 42.4133 125.291 42.3107 126.274 42.3107C127.483 42.3107 128.365 42.6624 128.926 43.2925C129.443 43.8566 129.756 44.7138 129.756 45.7689C129.756 46.8385 129.501 47.6884 129.028 48.3038C128.379 49.1684 127.331 49.608 126.136 49.608C125.772 49.608 125.437 49.5933 125.152 49.5054V54.253H123.929V42.5379ZM125.145 48.2525C125.415 48.3405 125.75 48.3771 126.158 48.3771C127.629 48.3771 128.525 47.4833 128.525 45.8421C128.525 44.2742 127.644 43.5196 126.296 43.5196C125.764 43.5196 125.356 43.5709 125.145 43.6442V48.2525Z" fill="white"/>
<path d="M131.745 50.5165L130.761 54.2457H129.501L132.714 42.3914H134.185L137.412 54.2457H136.108L135.096 50.5165H131.745ZM134.841 49.3223L133.916 45.9081C133.704 45.1315 133.566 44.4281 133.427 43.7468H133.398C133.26 44.4501 133.107 45.1681 132.925 45.8934L132 49.3223H134.841Z" fill="white"/>
<path d="M139.721 42.3913L142.657 47.6518H143.021V42.3913H144.216V47.6518H144.594L147.515 42.3913H148.943L145.592 47.8422C147.078 48.0327 147.683 49.1976 148.142 50.8828C148.462 52.011 148.688 53.154 149.082 54.2383H147.836C147.515 53.447 147.29 52.3041 147.049 51.4615C146.612 49.8424 146.139 48.802 144.624 48.802H144.216V54.2383H143.021V48.802H142.598C141.083 48.802 140.61 49.8424 140.158 51.4615C139.932 52.3041 139.707 53.447 139.401 54.2383H138.155C138.563 53.1467 138.789 52.0037 139.095 50.8974C139.575 49.227 140.173 48.0694 141.652 47.8349L138.301 42.384H139.721V42.3913Z" fill="white"/>
<path d="M157.189 42.3914V52.9929L158.02 53.0295L157.932 57.0884H156.978L156.89 54.2384H150.925L150.837 57.0884H149.883L149.795 53.0295L150.509 52.9929C150.859 52.1869 151.209 51.3224 151.434 50.3919C151.755 49.0219 151.886 47.4393 151.886 45.3952V42.3914H157.189ZM153.037 45.8934C153.037 47.791 152.899 49.3955 152.556 50.729C152.36 51.5568 152.068 52.3481 151.784 52.9782H155.965V43.6588H153.037V45.8934Z" fill="white"/>
<path d="M161.13 50.5165L160.147 54.2457H158.886L162.099 42.3914H163.57L166.797 54.2457H165.493L164.481 50.5165H161.13ZM164.226 49.3223L163.301 45.9081C163.089 45.1315 162.951 44.4281 162.813 43.7468H162.783C162.645 44.4501 162.492 45.1681 162.31 45.8934L161.385 49.3223H164.226Z" fill="white"/>
<path d="M169.405 42.3914V47.3514H173.979V42.3914H175.211V54.2457H173.979V48.6922H169.405V54.2457H168.181V42.3914H169.405Z" fill="white"/>
<path d="M183.937 53.8573C183.486 54.1357 182.59 54.4215 181.439 54.4215C178.773 54.4215 176.769 52.3114 176.769 48.4284C176.769 44.7211 178.773 42.2008 181.708 42.2008C182.888 42.2008 183.631 42.5158 183.952 42.7283L183.66 43.9738C183.194 43.6954 182.539 43.4829 181.752 43.4829C179.537 43.4829 178.066 45.256 178.066 48.3697C178.066 51.2711 179.399 53.132 181.701 53.132C182.444 53.132 183.201 52.9415 183.697 52.6411L183.937 53.8573Z" fill="white"/>
<path d="M186.669 42.3914V47.6518H187.048L190.289 42.3914H191.761L188.184 47.8276C189.743 48.0914 190.347 49.2856 190.836 50.8901C191.185 52.1063 191.455 53.1907 191.87 54.2457H190.551C190.216 53.4398 189.947 52.3848 189.699 51.447C189.262 49.8791 188.665 48.8094 187.062 48.8094H186.669V54.2457H185.46V42.3914H186.669Z" fill="white"/>
<path d="M194.215 42.3914V47.3881C194.215 49.271 194.186 50.8169 194.106 52.3994L194.135 52.4141C194.609 51.1832 195.199 49.9011 195.891 48.4944L198.95 42.3914H200.174V54.2457H199.023V49.1977C199.023 47.2782 199.038 45.8715 199.132 44.3768L199.089 44.3622C198.622 45.6663 197.981 47.0364 197.333 48.3552L194.376 54.2457H193.072V42.3914H194.215Z" fill="white"/>
<path d="M207.473 54.2457L206.264 51.6228C205.776 50.6191 205.462 49.967 205.171 49.2856H205.142C204.872 49.9743 204.61 50.6044 204.115 51.6448L202.979 54.2457H201.573L204.465 48.2526L201.689 42.3987H203.11L204.355 45.1754C204.705 45.9521 204.974 46.5455 205.222 47.1829H205.266C205.535 46.4796 205.768 45.9374 206.118 45.1754L207.407 42.3987H208.813L205.936 48.1647L208.879 54.2457H207.473Z" fill="white"/>
<path d="M119.383 71.6169L118.4 75.3461H117.14L120.352 63.4918H121.824L125.051 75.3461H123.747L122.734 71.6169H119.383ZM122.486 70.4227L121.561 67.0085C121.35 66.2319 121.212 65.5285 121.073 64.8472H121.044C120.906 65.5505 120.753 66.2685 120.571 66.9938L119.646 70.4227H122.486Z" fill="white"/>
<path d="M127.644 63.4918V68.7522H128.022L131.264 63.4918H132.735L129.159 68.928C130.718 69.1918 131.322 70.386 131.81 71.9905C132.16 73.2067 132.43 74.2911 132.845 75.3461H131.526C131.191 74.5402 130.922 73.4851 130.674 72.5474C130.237 70.9795 129.632 69.9098 128.037 69.9098H127.644V75.3461H126.435V63.4918H127.644Z" fill="white"/>
<path d="M136.247 64.7959H133.369V63.4918H140.37V64.7959H137.478V75.3461H136.247V64.7959Z" fill="white"/>
<path d="M142.569 63.4918V68.4885C142.569 70.3714 142.54 71.9173 142.46 73.4998L142.489 73.5145C142.963 72.2836 143.553 71.0015 144.245 69.5948L147.304 63.4918H148.528V75.3461H147.377V70.2981C147.377 68.3786 147.392 66.9719 147.486 65.4773L147.443 65.4626C146.976 66.7667 146.335 68.1368 145.687 69.4556L142.73 75.3461H141.426V63.4918H142.569Z" fill="white"/>
<path d="M150.648 63.6529C151.179 63.5137 152.024 63.4038 152.877 63.4038C154.101 63.4038 154.88 63.6676 155.47 64.2683C155.958 64.7226 156.257 65.4259 156.257 66.3637C156.257 67.5067 155.652 68.5104 154.654 68.9646V69.0013C155.55 69.2797 156.606 70.2175 156.606 71.9759C156.606 72.9942 156.286 73.7709 155.805 74.3497C155.142 75.1043 154.079 75.456 152.534 75.456C151.689 75.456 151.048 75.3827 150.64 75.3168V63.6529H150.648ZM151.871 68.5031H152.979C154.268 68.5031 155.026 67.6605 155.026 66.5176C155.026 65.1255 154.181 64.5834 152.95 64.5834C152.389 64.5834 152.068 64.6347 151.871 64.686V68.5031ZM151.871 74.1885C152.112 74.2398 152.462 74.2617 152.899 74.2617C154.159 74.2617 155.324 73.6829 155.324 71.9612C155.324 70.342 154.217 69.6753 152.884 69.6753H151.871V74.1885Z" fill="white"/>
<path d="M159.404 63.4918V68.4885C159.404 70.3714 159.374 71.9173 159.294 73.4998L159.323 73.5145C159.797 72.2836 160.387 71.0015 161.079 69.5948L164.138 63.4918H165.362V75.3461H164.211V70.2981C164.211 68.3786 164.226 66.9719 164.32 65.4773L164.277 65.4626C163.811 66.7667 163.17 68.1368 162.521 69.4556L159.564 75.3461H158.26V63.4918H159.404Z" fill="white"/>
<path d="M174.089 74.9578C173.637 75.2362 172.741 75.5219 171.59 75.5219C168.924 75.5219 166.921 73.4119 166.921 69.5288C166.921 65.8216 168.924 63.3013 171.86 63.3013C173.04 63.3013 173.783 63.6163 174.103 63.8288L173.812 65.0743C173.346 64.7959 172.69 64.5834 171.903 64.5834C169.689 64.5834 168.218 66.3564 168.218 69.4702C168.218 72.3715 169.551 74.2325 171.852 74.2325C172.595 74.2325 173.353 74.042 173.848 73.7416L174.089 74.9578Z" fill="white"/>
<path d="M177.906 64.7959H175.028V63.4918H182.029V64.7959H179.137V75.3461H177.906V64.7959Z" fill="white"/>
<path d="M190.668 69.2944C190.668 73.3753 188.687 75.5366 186.275 75.5366C183.777 75.5366 182.021 73.1115 182.021 69.5215C182.021 65.7557 183.886 63.2939 186.414 63.2939C189 63.3013 190.668 65.7776 190.668 69.2944ZM183.333 69.4922C183.333 72.0272 184.425 74.2911 186.348 74.2911C188.286 74.2911 189.379 72.0565 189.379 69.3676C189.379 67.0085 188.395 64.5468 186.363 64.5468C184.345 64.5468 183.333 66.8913 183.333 69.4922Z" fill="white"/>
<path d="M192.256 63.6529C192.788 63.5137 193.633 63.4038 194.485 63.4038C195.709 63.4038 196.488 63.6676 197.078 64.2683C197.566 64.7226 197.865 65.4259 197.865 66.3637C197.865 67.5067 197.26 68.5104 196.262 68.9646V69.0013C197.158 69.2797 198.215 70.2175 198.215 71.9759C198.215 72.9942 197.894 73.7709 197.413 74.3497C196.75 75.1043 195.687 75.456 194.143 75.456C193.298 75.456 192.657 75.3827 192.249 75.3168V63.6529H192.256ZM193.472 68.5031H194.58C195.869 68.5031 196.627 67.6605 196.627 66.5176C196.627 65.1255 195.782 64.5834 194.55 64.5834C193.99 64.5834 193.669 64.6347 193.472 64.686V68.5031ZM193.472 74.1885C193.713 74.2398 194.062 74.2617 194.5 74.2617C195.76 74.2617 196.925 73.6829 196.925 71.9612C196.925 70.342 195.818 69.6753 194.485 69.6753H193.472V74.1885Z" fill="white"/>
</g>
<defs>
<clipPath id="clip0_5_53">
<rect width="221" height="153" fill="white"/>
</clipPath>
</defs>
</svg>
