<svg width="113" height="134" viewBox="0 0 113 134" fill="none" xmlns="http://www.w3.org/2000/svg">
<g id="Frame" clip-path="url(#clip0_37_33)">
<g id="Group">
<path id="Vector" d="M16.9267 75.3176C16.9267 57.8898 16.9267 40.4437 16.9267 23.0159C16.9267 22.4073 16.964 21.7987 17.076 21.2086C17.6359 18.3685 19.5954 16.7825 22.544 16.7641C25.5487 16.7456 28.5346 16.7641 31.5392 16.7641C56.7146 16.7641 81.8714 16.7641 107.047 16.7641C110.835 16.7641 113 18.8849 113 22.6655C113 46.548 113 70.4489 112.981 94.3314C112.981 94.6818 112.795 95.1059 112.533 95.3457C99.6565 108.089 86.7609 120.833 73.8839 133.576C73.5107 133.945 73.1374 133.982 72.6895 133.982C56.1174 133.982 39.5267 133.982 22.9546 133.982C19.1475 133.982 16.9454 131.824 16.9267 128.025C16.908 120.722 16.9267 113.437 16.9267 106.134C16.9267 95.8805 16.9267 85.5898 16.9267 75.3176ZM107.345 89.3335C107.345 88.8725 107.345 88.5221 107.345 88.1901C107.345 66.5392 107.345 44.8882 107.345 23.2372C107.345 22.352 107.345 22.352 106.394 22.352C78.8481 22.352 51.3026 22.352 23.7571 22.3704C22.5067 22.3704 22.5814 22.1307 22.5814 23.5138C22.5814 35.0217 22.5814 46.5295 22.5814 58.0558C22.5814 81.219 22.5814 104.382 22.5814 127.546C22.5814 127.822 22.5814 128.099 22.5814 128.375C37.6978 128.375 52.7022 128.375 67.7813 128.375C67.7813 128.025 67.7813 127.73 67.7813 127.435C67.7813 117.79 67.7813 108.144 67.7813 98.4993C67.7813 97.153 67.744 95.7883 67.8187 94.442C67.9866 91.8601 69.6849 89.9237 72.1297 89.4811C72.7269 89.3704 73.3427 89.3704 73.9586 89.3704C83.9055 89.3704 93.8712 89.3704 103.818 89.3704C104.957 89.3336 106.095 89.3335 107.345 89.3335ZM73.4733 128.154C84.6894 117.052 95.868 106.005 107.028 94.9584C106.879 94.9399 106.655 94.9215 106.431 94.9215C95.7188 94.9215 85.0253 94.9215 74.3131 94.9215C73.6786 94.9215 73.4733 95.0506 73.4733 95.7329C73.492 106.319 73.492 116.886 73.4733 127.472C73.4733 127.675 73.4733 127.914 73.4733 128.154Z" fill="#014B52"/>
<path id="Vector_2" d="M5.69199 5.62483C5.67333 5.9199 5.65467 6.15965 5.65467 6.38095C5.65467 30.4478 5.65467 54.5332 5.65467 78.6001C5.65467 87.4338 5.65467 96.2675 5.65467 105.101C5.65467 106.042 5.65467 106.06 6.60644 106.06C8.13675 106.06 9.66705 106.06 11.1974 106.06C11.2347 106.282 11.272 106.411 11.272 106.54C11.272 108.052 11.272 109.564 11.2907 111.077C11.2907 111.482 11.1787 111.667 10.7308 111.667C8.92056 111.648 7.09166 111.704 5.28142 111.63C2.29546 111.519 0.279934 109.546 0.0373245 106.595C0 106.245 0 105.894 0 105.544C0 72.4035 0 39.2631 0 6.12276C0 5.49573 0.0559868 4.8687 0.186623 4.26012C0.802477 1.51225 2.74335 0 5.59868 0C31.7632 0 57.909 0 84.0735 0C84.8946 0 85.7344 0.0368841 86.5182 0.221305C88.8324 0.793009 90.3067 2.78475 90.4187 5.45885C90.4933 7.17396 90.4187 8.90751 90.4373 10.6411C90.4373 11.0284 90.288 11.1759 89.8961 11.1759C88.3658 11.1574 86.8355 11.1574 85.3052 11.1759C84.8573 11.1759 84.7453 10.9915 84.7453 10.5857C84.764 9.20259 84.764 7.83787 84.764 6.45472C84.764 6.17809 84.7453 5.90146 84.7267 5.60639C58.3569 5.62483 32.0804 5.62483 5.69199 5.62483Z" fill="#014B52"/>
<path id="Vector_3" d="M33.8906 39.0786C34.3199 39.0786 34.6185 39.0786 34.9171 39.0786C55.0536 39.0786 75.1902 39.0786 95.3082 39.0786C95.924 39.0786 96.1293 39.2261 96.1106 39.8532C96.0546 41.2548 96.0733 42.6564 96.1106 44.0395C96.1106 44.519 95.98 44.7403 95.4761 44.685C95.1775 44.6481 94.8603 44.685 94.5617 44.685C74.649 44.685 54.7177 44.685 34.8051 44.7034C34.0959 44.7034 33.8533 44.519 33.8906 43.8182C33.928 42.2691 33.8906 40.7384 33.8906 39.0786Z" fill="#014B52"/>
<path id="Vector_4" d="M96.0547 61.3752C75.3209 61.3752 54.6618 61.3752 33.928 61.3752C33.9094 61.1539 33.872 60.9326 33.872 60.7297C33.872 59.3281 33.9094 57.9265 33.8534 56.5433C33.8347 55.9348 34.0587 55.8057 34.6185 55.8057C39.8253 55.8241 45.0321 55.8057 50.2575 55.8057C65.206 55.8057 80.1544 55.8057 95.1029 55.8057C96.0733 55.8057 96.0733 55.8057 96.0733 56.7278C96.0733 58.0372 96.0733 59.3465 96.0733 60.6375C96.092 60.8957 96.0733 61.117 96.0547 61.3752Z" fill="#014B52"/>
<path id="Vector_5" d="M96.092 72.625C96.092 74.3954 96.092 76.1105 96.0733 77.8257C96.0733 77.9363 95.868 78.1023 95.7374 78.1576C95.5694 78.2129 95.3641 78.1761 95.1775 78.1761C75.0596 78.1761 54.9417 78.1761 34.8424 78.1761C33.9093 78.1761 33.9093 78.1761 33.9093 77.2171C33.9093 75.7048 33.9093 74.1926 33.9093 72.6434C54.6431 72.625 75.3022 72.625 96.092 72.625Z" fill="#014B52"/>
</g>
</g>
<defs>
<clipPath id="clip0_37_33">
<rect width="113" height="134" fill="white"/>
</clipPath>
</defs>
</svg>
