<svg width="566" height="2028" viewBox="0 0 566 2028" fill="none" xmlns="http://www.w3.org/2000/svg">
<g clip-path="url(#clip0_218_2)">
<path d="M37.7671 0.876953C188.709 0.876953 188.709 0.876953 188.709 0.876953L382.617 338.043L186.11 676.561H37.7671V572.399H127.547L261.593 338.706L127.547 104.962H37.7671V0.876953Z" fill="url(#paint0_linear_218_2)"/>
<path d="M37.7673 0.876953H0V104.962H37.7673V0.876953Z" fill="#FEF6BC"/>
<path d="M80.708 104.962C217.353 339.318 217.353 339.318 217.353 339.318L80.708 572.374H127.548L261.594 338.681L127.548 104.936H80.708V104.962Z" fill="url(#paint1_linear_218_2)"/>
<path d="M37.7673 572.399H0V676.484H37.7673V572.399Z" fill="#FEF6BC"/>
<path d="M528.233 1014.42C377.291 1014.42 377.291 1014.42 377.291 1014.42L183.383 677.249L379.89 338.706H528.233V442.867H438.452L304.406 676.561L438.452 910.305H528.233V1014.42Z" fill="url(#paint2_linear_218_2)"/>
<path d="M528.233 1014.41H566V910.322H528.233V1014.41Z" fill="#E4201B"/>
<path d="M485.292 910.33C348.646 675.974 348.647 675.974 348.647 675.974L485.292 442.918H438.452L304.406 676.612L438.452 910.356H485.292V910.33Z" fill="url(#paint3_linear_218_2)"/>
<path d="M528.233 442.899H566V338.814H528.233V442.899Z" fill="#E4201B"/>
<path d="M37.7671 676.561C188.709 676.561 188.709 676.561 188.709 676.561L382.617 1013.73L186.11 1352.27H37.7671V1248.11H127.547L261.593 1014.42L127.547 780.671H37.7671V676.561Z" fill="url(#paint4_linear_218_2)"/>
<path d="M37.7673 676.561H0V780.645H37.7673V676.561Z" fill="#CFA1CA"/>
<path d="M80.708 780.671C217.353 1015.03 217.353 1015.03 217.353 1015.03L80.708 1248.08H127.548L261.594 1014.39L127.548 780.645H80.708V780.671Z" fill="url(#paint5_linear_218_2)"/>
<path d="M37.7673 1248.11H0V1352.19H37.7673V1248.11Z" fill="#CFA1CA"/>
<path d="M37.7671 1352.19C188.709 1352.19 188.709 1352.19 188.709 1352.19L382.617 1689.36L186.11 2027.88H37.7671V1923.72H127.547L261.593 1690.02L127.547 1456.28H37.7671V1352.19Z" fill="url(#paint6_linear_218_2)"/>
<path d="M37.7673 1352.19H0V1456.28H37.7673V1352.19Z" fill="#F0F0B8"/>
<path d="M80.708 1456.28C217.353 1690.63 217.353 1690.63 217.353 1690.63L80.708 1923.69H127.548L261.594 1690L127.548 1456.25H80.708V1456.28Z" fill="url(#paint7_linear_218_2)"/>
<path d="M37.7673 1923.72H0V2027.8H37.7673V1923.72Z" fill="#F0F0B8"/>
<path d="M528.233 1690.05C377.291 1690.05 377.291 1690.05 377.291 1690.05L183.383 1352.88L379.89 1014.34H528.233V1118.5H438.452L304.406 1352.19L438.452 1585.94H528.233V1690.05Z" fill="url(#paint8_linear_218_2)"/>
<path d="M528.233 1690.04L566 1690.04L566 1585.96L528.233 1585.96L528.233 1690.04Z" fill="#17ABB6"/>
<path d="M485.292 1585.94C348.646 1351.58 348.647 1351.58 348.647 1351.58L485.292 1118.53H438.452L304.406 1352.22L438.452 1585.96H485.292V1585.94Z" fill="url(#paint9_linear_218_2)"/>
<path d="M528.233 1118.51H566V1014.42H528.233V1118.51Z" fill="#17ABB6"/>
</g>
<defs>
<linearGradient id="paint0_linear_218_2" x1="37.7719" y1="338.723" x2="382.62" y2="338.723" gradientUnits="userSpaceOnUse">
<stop stop-color="#FFDE5C"/>
<stop offset="1" stop-color="#EC6516"/>
</linearGradient>
<linearGradient id="paint1_linear_218_2" x1="80.7157" y1="338.687" x2="261.598" y2="338.687" gradientUnits="userSpaceOnUse">
<stop offset="1.06556e-07" stop-color="#FED47E"/>
<stop offset="1" stop-color="#F9B251"/>
</linearGradient>
<linearGradient id="paint2_linear_218_2" x1="183.382" y1="676.569" x2="528.23" y2="676.569" gradientUnits="userSpaceOnUse">
<stop offset="2.23767e-07" stop-color="#F59F46"/>
<stop offset="1" stop-color="#E41F1B"/>
</linearGradient>
<linearGradient id="paint3_linear_218_2" x1="485.286" y1="676.605" x2="304.404" y2="676.605" gradientUnits="userSpaceOnUse">
<stop offset="1.06556e-07" stop-color="#E8452E"/>
<stop offset="1" stop-color="#F5A26C"/>
</linearGradient>
<linearGradient id="paint4_linear_218_2" x1="37.7719" y1="1014.41" x2="382.62" y2="1014.41" gradientUnits="userSpaceOnUse">
<stop stop-color="#804F9B"/>
<stop offset="1" stop-color="#1D1736"/>
</linearGradient>
<linearGradient id="paint5_linear_218_2" x1="80.7157" y1="1014.38" x2="261.598" y2="1014.38" gradientUnits="userSpaceOnUse">
<stop offset="1.06556e-07" stop-color="#AC7AB4"/>
<stop offset="1" stop-color="#6C4594"/>
</linearGradient>
<linearGradient id="paint6_linear_218_2" x1="37.7719" y1="1690.04" x2="382.62" y2="1690.04" gradientUnits="userSpaceOnUse">
<stop stop-color="#CEDA67"/>
<stop offset="1" stop-color="#3B9E36"/>
</linearGradient>
<linearGradient id="paint7_linear_218_2" x1="80.7157" y1="1690" x2="261.598" y2="1690" gradientUnits="userSpaceOnUse">
<stop offset="1.06556e-07" stop-color="#C6DB8D"/>
<stop offset="1" stop-color="#96C459"/>
</linearGradient>
<linearGradient id="paint8_linear_218_2" x1="528.23" y1="1352.19" x2="183.382" y2="1352.19" gradientUnits="userSpaceOnUse">
<stop stop-color="#38B2BD"/>
<stop offset="1" stop-color="#C0E3E9"/>
</linearGradient>
<linearGradient id="paint9_linear_218_2" x1="485.286" y1="1352.23" x2="304.404" y2="1352.23" gradientUnits="userSpaceOnUse">
<stop offset="3.30323e-07" stop-color="#52BEC9"/>
<stop offset="1" stop-color="#AADAE2"/>
</linearGradient>
<clipPath id="clip0_218_2">
<rect width="566" height="2027" fill="white" transform="translate(0 0.876953)"/>
</clipPath>
</defs>
</svg>
