<svg width="927" height="842" viewBox="0 0 927 842" fill="none" xmlns="http://www.w3.org/2000/svg">
<g clip-path="url(#clip0_1_2)">
<path d="M110.155 -116C117.148 -114.243 124.123 -112.49 131.116 -110.732C134.468 -106.638 139.311 -104.371 143.192 -100.957C151.335 -93.7556 160.09 -87.3324 168.49 -80.4434C175.739 -74.4978 183.418 -69.0786 190.868 -63.3799C199.263 -56.9479 207.795 -50.5017 217.172 -45.766C224.368 -42.1336 231.153 -37.8908 238.115 -33.9602C246.359 -29.2911 253.641 -22.9211 260.283 -16.1368C269.91 -6.32221 278.193 4.58203 284.245 17.1064C287.455 23.742 290.996 30.3219 295.965 35.873C299.076 39.3511 302.537 42.5406 305.802 45.8791C311.079 51.3092 317.3 55.5887 323.184 60.2595C327.815 63.9214 332.932 67.0709 336.657 71.7344C341.271 77.5135 346.161 83.0645 350.808 88.7924C360.121 100.253 368.753 112.137 376.806 124.51C382.326 132.995 388.328 141.224 397.27 146.584C403.198 150.136 409.215 153.492 414.717 157.71C421.832 163.165 428.008 169.357 433.264 176.685C437.277 182.254 440.221 188.763 445.933 193.014C450.276 196.246 454.039 200.126 458.797 202.888C465.76 206.898 472.442 211.393 479.227 215.715C483.052 218.163 487.126 220.337 490.578 223.246C495.572 227.436 500.599 231.653 504.85 236.667C504.644 237.884 505.45 238.225 506.397 238.483C507.194 238.703 507.972 238.919 508.774 239.12C508.688 240.804 508.929 241.895 511.053 240.862C512.858 239.988 514.831 239.711 516.831 240.352C516.999 240.711 517.166 241.071 517.357 241.416C516.455 243.192 514.651 241.926 513.42 242.568C512.575 243.01 510.827 242.55 511.23 244.258C511.527 245.522 512.842 245.575 513.985 245.446C515.538 245.261 517.11 245.002 518.654 244.775C518.761 245.218 518.867 245.662 518.988 246.128C517.769 247.903 514.343 246.23 514.163 248.445C514.04 250.039 515.978 251.795 516.978 253.494C517.048 253.611 517.057 253.732 517.132 253.83C521.726 261.031 522.685 269.758 527.111 277.076C530.113 282.014 532.326 287.408 535.277 292.392C541.206 302.407 546.883 312.557 552.672 322.656C551.588 328.153 553.611 332.805 556.66 337.16C556.256 339.557 557.592 341.419 558.719 343.249C561.302 347.407 564.053 351.449 566.73 355.552C559.069 354.558 554.23 349.119 549.815 343.807C544.945 337.943 540.699 331.484 537.677 324.34C536.268 321.032 534.845 317.78 530.785 316.264C527.778 315.131 525.146 312.824 522.794 310.35C517.056 304.308 512.139 297.838 508.226 290.372C502.652 279.732 497.022 269.158 493.385 257.676C492.182 253.865 490.852 250.319 485.623 251.721C485.091 251.865 484.415 251.477 483.809 251.364C472.917 249.499 465.268 242.937 459.431 234.056C457.41 230.97 453.501 228.224 456.777 222.92C453.515 224.698 452.783 227.924 448.95 227.476C440.828 226.506 434.491 222.217 428.088 217.793C419.729 212.004 411.262 206.486 401.07 204.361C396.343 203.371 391.671 202.237 386.887 201.55C376.317 200.063 365.811 199.267 355.374 202.374C350.383 203.856 346.723 206.584 345.77 212.035C343.212 213.692 342.659 216.209 343.276 218.882C345.47 228.455 348.807 237.581 354.314 245.804C357.367 250.379 359.059 255.562 360.927 260.671C361.615 262.588 361.18 263.53 358.877 262.991C357.362 262.63 355.801 261.583 354.214 262.453C350.714 264.389 346.718 264.118 342.981 264.944C340.943 265.403 340.536 266.074 340.59 267.753L340.385 267.86C337.202 266.009 336.98 268.392 336.585 270.514C335.988 271.156 335.571 272.023 334.587 272.232C329.302 269.595 328.609 264.464 328.717 259.614C328.849 254.592 329.924 249.37 336.398 248.222C338.744 247.8 339.96 245.647 341.952 244.661C342.699 244.293 343.651 243.581 343.013 242.647C342.334 241.644 341.442 242.59 340.77 242.976C338.231 244.479 335.571 245.357 332.013 245.157C335.375 242.116 341.361 243.382 341.653 237.25C341.758 235.254 341.796 235.026 339.861 235.075C336.409 235.159 333.194 236.908 329.683 236.363C333.054 233.523 337.638 233.822 341.749 231.901C336.542 229.74 331.807 230.989 327.151 232.158C324.721 232.757 322.751 234.363 321.512 236.689C320.877 237.877 320.292 238.94 321.905 239.781C320.2 242.228 318.868 240.109 318.315 239.077C317.082 236.725 315.648 234.462 315.293 231.617C314.969 229.117 315.019 226.314 313.329 224.204C309.027 218.84 306.269 212.616 303.217 206.535C300.025 200.142 296.694 193.833 293.05 187.663C288.029 179.165 280.668 172.636 274.484 165.134C262.312 150.378 251.442 134.779 244.804 116.616C240.705 105.395 237.31 94.0534 239.363 81.8607C239.654 80.1495 239.124 78.6286 237.908 77.4705C235.845 75.5046 233.819 73.5481 231.489 71.8524C224.3 66.6157 216.302 62.4646 209.65 56.5104C202.289 49.9025 196.278 42.4241 197.107 31.7082C197.444 27.4508 195.629 24.4173 192.581 22.1051C180.467 12.9543 167.358 5.71437 152.991 0.636769C147.472 -1.30538 141.69 -2.28251 136.297 -4.41105C121.129 -10.4037 106.49 -17.6315 91.8691 -24.8547C88.8163 -26.3554 88.0924 -25.5262 87.3521 -22.7383C86.4806 -19.4283 86.3177 -15.8608 84.3926 -12.8552C84.7585 -14.5476 85.087 -16.2494 85.5088 -17.9278C93.7241 -50.6185 101.94 -83.3093 110.155 -116Z" fill="#F4BD81"/>
<path d="M716.593 689.991C711.059 684.318 704.33 680.169 698.11 675.334C689.207 668.398 680.434 661.257 671.587 654.255C661.598 646.352 651.936 637.937 641.078 631.203C632.811 626.072 625.548 619.866 619.304 612.447C617.168 608.719 614.588 605.176 612.942 601.233C609.176 592.237 606.114 582.962 601.447 574.315C589.982 553.114 578.755 531.755 567.178 510.606C562.167 501.436 557.333 492.35 555.886 481.776C554.878 474.425 553.395 467.153 550.498 460.219C544.797 446.613 537.934 433.608 530.67 420.778C528.306 416.616 524.51 412.866 526.047 407.304C526.196 406.787 525.768 406.124 525.624 405.513C524.126 399.327 520.574 394.291 516.616 389.45C513.356 385.459 513.356 385.459 517.46 381.831C518.905 382.392 519.295 383.601 519.68 384.986C522.234 394.153 527.14 402.008 533.446 409.025C540.157 416.481 550.415 417.79 559.853 414.63C561.751 414.969 563.361 414.243 564.896 413.261C565.996 414.013 566.535 415.021 566.315 416.373C565.061 415.84 563.978 416.202 563.012 417.05C559.401 418.323 555.827 419.685 551.822 419.135C550.343 418.942 548.063 419.261 548.521 421.537C549.017 423.982 548.688 426.555 549.431 428.804C551.225 434.291 551.619 440.06 553.561 445.584C554.858 449.261 556.892 452.686 557.726 456.465C558.96 462.048 562.046 466.65 564.904 471.373C566.291 473.665 567.412 476.227 569.695 477.871C573.73 480.749 577.275 483.999 583.302 482.341C586.815 481.38 590.682 480.825 594.428 480.042C592.848 482.302 590.465 483.031 588.285 484.129C587.011 484.78 584.917 484.988 585.199 487.259C585.758 491.741 586.265 496.27 587.766 500.553C590.592 508.639 594.883 515.784 601.39 521.603C605.765 525.497 610.744 526.511 615.961 523.896C620.679 521.533 625.434 519.259 630.18 516.942C627.301 521.611 623.077 524.376 617.871 525.844C608.564 528.481 609.481 526.094 612.86 535.37C617.661 548.531 620.895 562.251 627.049 574.92C628.198 577.291 628.414 580.061 629.955 582.371C634.191 588.71 637.675 595.513 642.131 601.768C645.064 605.875 648.94 609.229 651.378 613.648C655.096 620.391 661.003 625.286 665.804 631.112C668.901 634.884 672.604 638.134 675.986 641.641C682.893 648.789 690.249 655.099 699.604 658.818C705.808 661.269 711.891 663.968 716.992 668.521C722.857 673.742 729.096 678.502 734.881 683.881C741.296 689.835 747.346 696.213 754.344 701.58C762.451 707.82 769.081 716.386 780.572 716.815C781.593 716.854 782.669 717.541 783.62 718.097C793.695 723.999 802.042 732.124 810.815 739.662C816.927 744.925 822.338 751.004 828.343 756.458C835.736 763.173 842.451 770.611 849.956 777.275C855.095 781.837 860.167 786.503 865.296 791.103C872.689 797.738 880.914 802.561 890.537 805.059C903.6 808.461 916.832 811.112 930.05 813.819C933.556 814.541 933.623 813.408 934.302 811.101C935.238 807.926 935.313 804.475 937.191 801.577C933.886 815.041 930.568 828.482 927.264 841.946C907.03 836.861 886.797 831.776 866.563 826.692C866.306 823.613 863.406 822.686 861.73 820.758C861.792 818.93 859.96 818.886 859.037 818.06C853.503 813.1 848.291 807.726 841.515 804.318C841.474 803.534 841.097 802.904 840.505 802.418C833.433 796.636 827.444 789.699 820.274 783.991C815.96 780.568 812.182 776.506 808.214 772.653C799.769 764.444 790.642 756.897 781.609 749.294C773.605 742.564 765.415 736.025 757.747 728.903C753.406 724.878 749.466 720.438 745.292 716.296C739.852 710.885 734.496 705.296 728.561 700.354C724.507 696.996 721.243 692.706 716.593 689.991Z" fill="#D9A46D"/>
<path d="M280.873 -12.7864C281.281 -11.4148 282.554 -11.2733 283.645 -10.8803C283.288 -8.82875 284.191 -7.37262 285.743 -6.13021C287.732 -4.50018 289.726 -2.8888 290.866 -0.481011C291.373 0.578238 292.216 1.24616 293.489 1.14979C293.741 1.33197 294.016 1.50021 294.267 1.68239C295.029 4.57007 296.527 6.96898 298.469 9.26117C301.552 12.9305 305.082 16.5538 306.919 20.8418C308.468 24.4626 310.791 27.5248 312.797 30.6658C317.345 37.7367 323.284 43.69 329.516 49.4991C334.291 53.9307 338.72 58.9495 342.939 64.0939C347.595 69.7845 350.898 76.3641 355.877 81.7986C359.272 85.487 361.972 89.8134 364.765 94.0047C365.64 95.3349 366.642 95.8445 368.045 96.0188C368.269 96.1543 368.493 96.2898 368.721 96.4067C368.472 97.95 369.446 98.8886 370.326 99.9623C376.607 107.707 383.449 114.958 391.034 121.384C395.431 125.106 399.278 129.761 405.072 131.633C405.533 132.007 406.013 132.385 406.47 132.777C406.929 134.895 408.435 135.294 410.3 135.128C413.683 137.366 417.197 139.399 420.403 141.87C428.058 147.779 434.634 154.745 440.015 162.838C443.991 168.794 448.619 174.358 452.114 180.57C455.474 186.529 459.198 192.065 463.781 197.102C468.103 201.836 473.597 204.902 479.096 207.95C487.797 212.773 494.63 220.141 503.074 225.356C506.317 227.36 509.733 229.547 512.014 232.856L511.734 233.024C508.363 232.236 507.253 235.705 504.809 236.676C500.557 231.662 495.53 227.445 490.536 223.256C487.084 220.346 483.01 218.172 479.185 215.724C472.4 211.402 465.713 206.926 458.755 202.898C453.993 200.154 450.215 196.251 445.892 193.023C440.179 188.772 437.235 182.263 433.222 176.694C427.947 169.361 421.771 163.17 414.675 157.719C409.173 153.501 403.156 150.145 397.228 146.594C388.286 141.233 382.261 133.018 376.764 124.519C368.73 112.151 360.084 100.243 350.767 88.8017C346.101 83.0691 341.211 77.5181 336.615 71.7437C332.908 67.0849 327.787 63.954 323.142 60.2688C317.253 55.6166 311.018 51.3138 305.76 45.8883C302.5 42.5312 299.057 39.3465 295.923 35.8823C290.935 30.3265 287.399 23.7279 284.203 17.1157C278.151 4.59131 269.868 -6.31292 260.241 -16.1275C253.599 -22.9118 246.317 -29.2819 238.073 -33.9509C231.111 -37.8815 224.312 -42.1477 217.13 -45.7567C207.734 -50.4971 199.226 -56.9573 190.826 -63.3707C183.376 -69.0693 175.697 -74.4885 168.448 -80.4341C160.09 -87.3324 151.335 -93.7556 143.173 -100.961C139.311 -104.371 134.468 -106.638 131.097 -110.737C141.447 -108.136 151.816 -105.53 162.165 -102.929C162.084 -100.789 163.715 -100.022 165.155 -99.0457C171.697 -94.626 178.174 -90.1037 184.758 -85.7725C186.883 -84.3661 188.61 -82.1675 191.45 -81.9495C191.45 -81.9495 191.627 -81.7068 191.608 -81.7114C191.482 -81.0494 191.588 -80.4476 192.297 -80.1903C197.83 -78.2248 201.508 -73.3748 206.598 -70.9062C211.105 -68.7228 214.373 -64.2138 219.838 -63.9506C220.141 -63.815 220.468 -63.6933 220.771 -63.5577C220.186 -61.9402 220.221 -60.6623 222.301 -60.2587C225.061 -59.7237 227.125 -57.9956 229.319 -56.3933C234.533 -52.6048 239.901 -49.0352 245.209 -45.3818C245.768 -45.1619 246.313 -44.9654 246.873 -44.7455C246.601 -43.981 246.689 -43.2254 247.299 -42.735C251.627 -39.288 256.007 -35.8876 260.363 -32.4731C260.694 -32.2909 261.039 -32.0852 261.37 -31.903C262.067 -29.9434 263.245 -28.4776 265.385 -27.9993C265.926 -27.7841 266.466 -27.5689 266.993 -27.3771C267.081 -26.78 266.94 -25.9827 267.271 -25.6419C271.686 -21.2014 275.584 -16.2766 280.873 -12.7864Z" fill="#FAD1A4"/>
<path d="M83.6098 -9.58235C83.8816 -10.664 84.1395 -11.7689 84.4113 -12.8505C86.3364 -15.8561 86.4993 -19.4236 87.3708 -22.7336C88.111 -25.5215 88.8349 -26.3507 91.8877 -24.85C106.508 -17.6268 121.129 -10.4037 136.316 -4.40636C141.709 -2.27782 147.495 -1.31934 153.01 0.64146C167.376 5.71906 180.5 12.9823 192.6 22.1098C195.666 24.4267 197.458 27.4742 197.126 31.7129C196.278 42.4241 202.289 49.9025 209.668 56.5151C216.316 62.488 224.318 66.6204 231.508 71.8571C233.837 73.5528 235.859 75.528 237.927 77.4752C239.143 78.6332 239.673 80.1542 239.381 81.8654C237.328 94.058 240.705 105.395 244.823 116.62C251.465 134.765 262.331 150.383 274.503 165.139C280.687 172.641 288.029 179.165 293.069 187.668C296.713 193.838 300.044 200.147 303.236 206.54C306.287 212.62 309.027 218.84 313.348 224.209C315.038 226.319 314.988 229.121 315.311 231.621C315.667 234.467 317.1 236.73 318.333 239.082C318.882 240.132 320.214 242.251 321.923 239.786C325.104 239.991 327.782 239.038 329.702 236.368C333.217 236.895 336.428 235.164 339.879 235.079C341.815 235.03 341.777 235.259 341.672 237.255C341.38 243.387 335.394 242.12 332.032 245.162C335.595 245.343 338.268 244.488 340.788 242.98C341.442 242.59 342.334 241.644 343.032 242.652C343.67 243.586 342.722 244.279 341.971 244.665C339.978 245.652 338.758 247.823 336.417 248.226C329.961 249.38 328.868 254.597 328.736 259.619C328.609 264.464 329.325 269.581 334.606 272.237C333.83 273.826 332.639 275.252 332.66 277.14C331.954 278.212 332.219 279.369 332.688 280.34C338.173 291.809 347.468 298.527 360.397 297.018C365.759 298.405 368.689 297 369.334 292.463C371.216 279.058 369.543 266.068 363.715 253.837C359.161 244.267 354.001 234.98 349.33 225.479C347.269 221.294 345.26 216.982 345.826 212.049C346.779 206.598 350.439 203.87 355.43 202.388C365.867 199.281 376.377 200.059 386.943 201.564C391.75 202.237 396.417 203.39 401.126 204.375C411.337 206.505 419.804 212.023 428.144 217.807C434.528 222.226 440.865 226.515 449.006 227.49C452.839 227.938 453.571 224.712 456.833 222.934C453.562 228.219 457.471 230.966 459.487 234.07C465.301 242.966 472.95 249.527 483.865 251.378C484.471 251.491 485.147 251.879 485.679 251.735C490.908 250.333 492.219 253.874 493.441 257.69C497.074 269.19 502.685 279.76 508.282 290.386C512.2 297.834 517.112 304.322 522.85 310.364C525.202 312.838 527.834 315.146 530.841 316.278C534.919 317.798 536.342 321.051 537.733 324.354C540.755 331.498 545.001 337.957 549.871 343.821C554.3 349.157 559.143 354.577 566.781 355.584C568.249 356.053 568.924 357.075 568.839 358.6C568.572 359.028 568.292 359.434 568.063 359.872C563.632 367.878 558.202 369.131 550.756 363.81C545.458 360.04 541.426 354.942 537.655 349.831C527.868 336.626 518.418 323.188 509.042 309.689C500.863 297.899 492.244 286.435 483.402 275.152C481.135 272.263 479.366 268.963 476.543 266.47C469.118 259.885 460.688 254.693 452.412 249.283C452.003 248.545 451.21 248.465 450.515 248.231C450.371 248.175 450.245 248.124 450.1 248.067C450.152 248.179 450.207 248.273 450.259 248.385C450.411 249.434 450.564 250.484 450.744 251.738C449.844 251.453 449.075 251.2 448.306 250.947C443.174 248.964 437.908 249.563 432.656 250.187C431.574 250.311 430.063 250.407 429.884 251.671C429.212 256.161 427.657 261.163 430.329 265.046C433.691 269.896 432.943 274.685 432.657 279.847C432.109 289.364 433.954 298.115 442.631 303.904C445.701 305.965 449.352 306.823 452.74 308.487C449.071 307.545 447.139 308.765 445.419 312.218C440.636 321.782 436.898 331.608 435.304 342.211C433.559 353.886 435.043 364.628 444.323 373.067C445.259 373.917 445.678 374.775 445.074 375.992C441.082 384.069 439.257 392.829 437.39 401.52C435.594 409.931 435.29 418.399 438.978 426.603C439.917 428.702 440.91 429.011 442.762 428.426C442.713 430.277 441.49 431.12 439.9 431.295C429.797 432.365 421.35 429.766 418.459 418.551C415.748 408.036 416.218 397.726 418.562 387.292C420.25 379.785 422.181 372.261 421.729 364.514C421.044 352.724 421.394 340.995 423.045 329.297C424.236 320.852 424.096 312.57 420.231 304.6C416.984 297.955 415.804 290.739 415.127 283.412C414.722 279.107 414.018 274.806 412.624 270.649C410.431 264.15 406.655 259.374 399.493 258.051C399.011 259.258 400.12 259.973 400.133 260.947C399.406 260.844 398.65 260.773 397.937 260.614C393.9 259.718 392.223 261.497 391.509 265.442C390.73 269.727 390.384 274.021 389.922 278.307C388.889 287.544 389.438 296.564 393.844 304.987C394.691 306.588 393.85 307.566 392.884 308.572C384.6 317.077 377.747 326.676 373.13 337.55C369.3 346.56 367.036 356.043 373.414 365.22C374.652 366.998 374.826 369.143 375.113 371.238C375.349 373.061 374.69 374.105 373.247 375.269C370.26 377.691 366.548 377.63 363.198 378.731C360.086 379.754 356.843 380.901 355.715 384.206C352.762 392.802 352.378 401.43 356.845 409.769C356.836 410.044 356.803 410.333 356.793 410.608C356.289 411.195 355.798 411.805 355.294 412.392C350.575 415.469 345.567 414.726 340.509 413.554C338.192 412.992 336.468 411.488 335.267 409.64C330.757 402.578 329.358 394.97 332.338 386.976C334.416 381.392 337.556 376.312 340.393 371.097C347.138 358.696 353.598 346.163 356.339 332.101C357.39 326.735 359.094 321.612 361.525 316.671C363.811 311.992 365.403 307.079 365.671 301.753C365.781 299.501 365.548 298.927 363.23 299.554C359.073 300.71 354.861 301.852 350.459 300.904C350.184 300.895 349.904 300.904 349.629 300.894C349.144 300.772 348.641 300.646 348.156 300.524C347.192 299.627 345.933 299.588 344.748 299.33C342.288 297.681 339.814 296.088 337.629 294.052C336.777 293.263 335.971 291.891 334.525 292.518C333.102 293.132 332.839 294.494 332.982 295.977C333.566 302.171 330.883 307.325 328.004 312.55C323.316 321.027 320.199 330.117 318.644 339.699C318.437 340.916 318.175 341.722 317.167 342.42C308.41 348.468 303.913 357.369 300.744 367.14C300.361 367.56 299.992 368.002 299.609 368.421L299.544 368.445C295.233 369.265 291.845 367.68 289.14 364.403C288.037 361.925 286.59 359.321 287.335 356.673C289.026 350.654 291.025 344.673 293.895 339.09C297.845 331.419 302.979 324.322 305.27 315.837C307.336 308.168 310.288 300.841 313.477 293.593C315.923 288.042 317.11 282.293 315.961 276.215C314.923 270.72 314.449 265.189 314.064 259.62C313.583 252.699 312.36 245.888 307.293 240.808C298.741 232.235 293.19 221.819 287.784 211.222C283.295 202.421 278.688 193.69 272.64 185.806C270.301 180.44 266.468 176.046 263.079 171.388C251.891 156.106 240.531 140.959 230.323 125.011C225.226 117.048 222.491 107.975 220.081 98.8636C219.618 92.6606 218.613 86.5594 216.461 80.6853C214.835 76.2716 212.47 72.2674 209.691 68.4958C209.645 68.2859 209.528 68.1179 209.342 67.9917C208.508 66.8901 207.67 65.8071 206.851 64.7288C206.683 64.5281 206.534 64.3321 206.367 64.1313C205.733 63.417 205.095 62.7214 204.48 62.0117C204.333 60.7058 203.382 60.2289 202.291 59.9151C201.648 59.6345 201.033 59.3213 200.828 58.5562C200.76 57.0125 199.459 56.9829 198.438 56.6272C195.297 55.0051 192.908 52.2041 189.566 50.9082C186.488 47.2202 182.321 45.261 177.972 43.5535C177.404 43.2916 176.83 43.0484 176.257 42.8052C174.45 40.6857 171.783 39.857 169.481 38.6836C163.697 35.7432 158.769 31.1342 152.223 29.6478C151.93 29.4749 151.617 29.2973 151.324 29.1244C150.212 27.0804 148.216 26.4996 146.165 25.9841C145.592 25.7409 145.037 25.5024 144.478 25.2825C141.519 23.171 138.266 21.6793 134.774 20.663C134.103 20.3357 133.431 20.0085 132.76 19.6812C130.529 17.356 127.228 17.0814 124.618 15.5533C117.931 11.6323 110.748 8.81605 103.663 5.76671C103.052 5.51413 102.46 5.26623 101.845 5.0323C101.528 4.87335 101.192 4.70971 100.88 4.53212C100.33 4.35423 99.7848 4.15769 99.216 3.97511C96.6723 1.86872 94.0257 0.0140419 90.5984 -0.311953C90.0251 -0.555162 89.4284 -0.784415 88.8551 -1.02762C84.8184 -2.55756 82.0883 -4.79009 83.6098 -9.58235ZM331.646 240.703C331.184 240.646 330.741 240.594 330.28 240.538C330.317 240.706 330.34 240.85 330.377 241.018C330.797 240.926 331.221 240.814 331.646 240.703C332.206 240.605 332.747 240.504 333.288 240.402C334.784 240.679 336.235 240.746 338.475 239.485C336.008 239.36 334.511 239.004 333.251 240.313C332.705 240.434 332.178 240.559 331.646 240.703ZM325.386 241.707C323.974 241.094 323.185 241.55 322.843 242.832C322.801 243 322.973 243.42 323.09 243.43C324.33 243.543 324.918 242.779 325.386 241.707ZM327.06 246.014C326.938 246.181 326.803 246.326 326.681 246.493C326.849 246.615 327.026 246.858 327.171 246.834C327.315 246.811 327.423 246.541 327.563 246.378C327.391 246.275 327.227 246.135 327.06 246.014ZM329.914 245.7C330.105 245.887 330.24 246.059 330.408 246.181C330.441 246.209 330.679 246.051 330.674 245.99C330.646 245.785 330.535 245.598 330.465 245.402C330.297 245.519 330.115 245.612 329.914 245.7Z" fill="#D9A46D"/>
<path d="M103.546 5.75724C110.631 8.80658 117.814 11.6229 124.502 15.5438C127.13 17.0767 130.408 17.3652 132.644 19.6717C127.124 18.5224 122.197 16.0353 117.318 13.2825C114.228 11.5345 110.83 10.3038 107.464 9.18044C105.581 8.54854 104.136 7.7493 103.546 5.75724Z" fill="#F4BD81"/>
<path d="M152.116 29.6803C158.662 31.1667 163.571 35.771 169.374 38.7161C171.695 39.8942 174.357 40.7416 176.15 42.8377C171.003 41.1479 165.674 39.8682 161.556 35.9784C161.123 35.5721 160.676 34.9047 160.177 34.8388C156.634 34.424 154.599 31.712 152.116 29.6803Z" fill="#F4BD81"/>
<path d="M177.86 43.6046C182.195 45.2888 186.381 47.2527 189.454 50.9593C184.783 49.7457 180.915 47.3066 177.86 43.6046Z" fill="#F4BD81"/>
<path d="M83.6098 -9.58235C82.0883 -4.79009 84.837 -2.55287 88.7385 -1.03709C85.8412 -0.000676253 84.1698 -2.26456 82.1473 -3.5262C82.6301 -5.52627 83.1176 -7.54499 83.6098 -9.58235Z" fill="#F4BD81"/>
<path d="M90.4771 -0.302782C93.9044 0.023213 96.5697 1.88258 99.0948 3.98428C95.775 3.46721 92.7076 2.41881 90.4771 -0.302782Z" fill="#F4BD81"/>
<path d="M134.666 20.6955C138.135 21.7258 141.407 23.2221 144.37 25.315C140.762 24.5271 137.331 23.427 134.666 20.6955Z" fill="#F4BD81"/>
<path d="M217.104 96.8267C216.809 97.6844 216.207 97.9495 215.382 97.6827C214.538 97.4111 214.278 96.7906 214.521 95.9794C214.774 95.1309 215.413 94.8752 216.225 95.1187C217.092 95.3763 217.31 96.0061 217.104 96.8267Z" fill="#DADBDC"/>
<path d="M146.058 26.0166C148.09 26.5275 150.104 27.1129 151.216 29.1569C149.062 28.8138 147.142 28.0933 146.058 26.0166Z" fill="#F4BD81"/>
<path d="M202.165 59.9429C203.256 60.2567 204.212 60.7149 204.354 62.0396C203.296 61.6745 202.177 61.3933 202.165 59.9429Z" fill="#F4BD81"/>
<path d="M198.331 56.6598C199.352 57.0154 200.653 57.045 200.721 58.5887C199.532 58.4287 198.726 57.7702 198.331 56.6598Z" fill="#F4BD81"/>
<path d="M100.759 4.54129C101.095 4.70492 101.407 4.88252 101.724 5.04147C101.518 5.22776 101.261 5.61918 101.135 5.56773C100.618 5.41786 100.693 4.96093 100.759 4.54129Z" fill="#F4BD81"/>
<path d="M209.239 68.0056C209.426 68.1317 209.542 68.2998 209.588 68.5097C209.332 68.4254 209.234 68.2621 209.239 68.0056Z" fill="#F4BD81"/>
<path d="M778.101 518.607C779.946 520.18 781.791 521.754 783.631 523.347C783.647 525.016 784.341 526.281 785.823 527.09C786.153 527.906 786.483 528.723 786.813 529.539C786.983 531.545 787.699 533.033 789.292 534.584C792.404 537.586 793.695 542.074 794.25 545.941C795.72 556.184 798.753 566.046 801.096 576.053C802.024 580.013 802.322 584.43 804.803 588.206C806.409 590.651 806.698 593.995 807.464 596.944C808.736 601.823 810.391 606.522 813.426 610.615C813.094 611.781 812.934 612.89 814.113 613.722C814.56 614.152 815.012 614.563 815.44 614.987C816.468 617.446 816.59 620.51 819.835 621.484C819.835 621.484 819.816 621.48 819.821 621.461C819.416 624.571 822.091 625.521 823.834 627.109C823.983 627.384 824.136 627.641 824.285 627.916C824.032 632.552 828.456 634.04 830.593 637.055C835.216 643.59 840.884 649.356 846.665 654.834C851.179 659.121 856.766 662.289 862.027 665.733C870.709 671.424 879.927 676.238 889.029 681.123C896.052 684.891 902.786 689.18 909.389 693.437C915.517 697.375 922.102 700.755 927.823 705.445C931.704 708.62 936.159 711.088 940.334 713.882C943.885 716.242 947.571 718.457 950.945 721.049C952.771 722.46 955.037 722.752 956.798 724.106C956.653 724.684 956.526 725.267 956.381 725.845C955.312 726.707 955.04 727.788 955.556 729.048C949.567 752.96 943.559 776.868 937.569 800.78C936.821 799.263 937.61 797.856 937.962 796.457C942.358 778.885 946.53 761.258 951.299 743.78C953.187 736.819 953.796 731.084 945.9 727.791C945.685 727.698 945.578 727.413 945.401 727.25C936.657 719.996 927.095 713.945 917.43 708.067C908.123 702.417 898.196 697.821 888.922 692.199C877.822 685.484 865.843 680.53 854.691 673.941C844.401 667.866 835.148 660.584 826.769 652.114C819.684 644.961 813.646 637.039 808.298 628.498C801.349 617.414 795.92 605.8 793.595 592.804C792.873 588.737 793.088 584.647 792.393 580.626C790.013 566.982 787.208 553.45 782.784 540.284C780.754 534.242 779.558 527.875 775.274 522.754C771.847 518.641 767.551 515.539 763.465 512.232C757.138 507.113 751.086 502.321 748.387 493.811C745.725 485.39 740.012 478.225 735.507 470.59C731.891 464.467 725.97 459.311 725.541 451.788C725.207 446.093 723.087 441.04 720.77 436.374C715.495 425.809 708.843 415.989 700.029 407.826C695.334 403.474 690.909 398.833 686.372 394.322C691.367 394.09 695.824 395.528 699.653 398.75C709.641 407.208 716.073 418.301 722.341 429.492C725.943 435.909 729.218 442.521 732.633 449.05C732.793 451.33 733.999 453.239 734.901 455.25C737.915 461.956 742.062 468.093 744.563 475.106C745.636 478.092 747.106 481.316 750.088 483.255L750.13 483.325C751.999 488.275 754.74 492.593 759.204 495.657C760.576 498.798 763.255 500.839 765.556 503.201C766.772 504.439 768.104 505.527 768.708 507.225C771.039 511.677 774.299 515.351 778.101 518.607Z" fill="#FAD1A4"/>
<path d="M819.802 621.457C816.557 620.483 816.435 617.418 815.407 614.959C817.915 616.422 820.277 617.987 819.802 621.457Z" fill="#C9C9CC"/>
<path d="M823.815 627.104C822.054 625.512 819.392 624.585 819.802 621.457C822.921 622.062 824.374 623.855 823.815 627.104Z" fill="#C9C9CC"/>
<path d="M786.794 529.535C786.464 528.718 786.134 527.902 785.804 527.085C786.35 526.41 785.965 524.707 787.168 524.97C788.334 525.223 788.393 526.645 787.981 527.731C787.719 528.379 787.182 528.938 786.794 529.535Z" fill="#F2F1F1"/>
<path d="M311.934 23.9259C314.236 25.02 314.841 25.9255 314.336 27.3053C314.256 27.543 313.692 27.8175 313.472 27.7426C311.78 27.1389 312.827 25.7365 311.934 23.9259Z" fill="#C9C9CC"/>
<path d="M814.075 613.713C812.892 612.9 813.056 611.771 813.389 610.606C814.969 611.34 814.301 612.58 814.075 613.713Z" fill="#C9C9CC"/>
<path d="M789.925 531.908C789.85 532.285 789.682 532.639 789.258 532.434C788.973 532.303 788.75 531.929 788.629 531.621C788.48 531.267 788.635 530.889 789.078 530.941C789.623 530.979 789.931 531.334 789.925 531.908Z" fill="#F2F1F1"/>
<path d="M332.627 277.112C332.611 275.205 333.797 273.798 334.573 272.209C335.553 272.019 335.969 271.152 336.571 270.49C338.032 269.886 339.567 269.379 340.371 267.837L340.576 267.73C343.458 267.701 345.922 266.099 348.637 265.473C353.624 264.327 361.809 264.342 363.789 269.479C365.449 273.762 366.94 278.003 366.38 282.68C365.366 284.269 364.809 286.013 364.298 287.807C363.937 289.085 364.299 291.198 362.149 291.153C360.335 291.114 359.898 289.537 359.639 287.965C359.153 284.849 356.275 285.573 354.354 284.852C352.742 284.249 351.426 284.672 350.831 286.485C350.026 288.9 348.279 287.886 346.843 287.446C344.983 286.879 344.658 285.489 345.546 283.928C346.822 281.691 345.443 280.63 343.699 280.708C339.496 280.94 336.235 278.614 332.627 277.112Z" fill="#F2F1F1"/>
<path d="M518.932 246.114C520.937 250.603 522.624 255.25 524.992 259.552C530.399 269.357 536.236 278.953 541.708 288.734C546.403 297.111 551.122 305.474 554.636 314.446C556.594 319.439 556.439 320.371 552.654 322.652C546.865 312.553 541.187 302.402 535.254 292.406C532.289 287.398 530.071 282.023 527.088 277.09C522.662 269.772 521.684 261.041 517.109 253.844C517.034 253.746 517.03 253.606 516.955 253.508C515.95 251.828 514.012 250.072 514.14 248.459C514.282 246.234 517.727 247.913 518.932 246.114Z" fill="#FAD1A4"/>
<path d="M366.394 282.703C366.959 278.008 365.463 273.786 363.803 269.502C361.823 264.365 353.62 264.346 348.651 265.496C345.936 266.123 343.472 267.724 340.59 267.753C340.555 266.079 340.943 265.403 343 264.949C346.736 264.123 350.733 264.394 354.233 262.458C355.824 261.569 357.38 262.634 358.896 262.995C361.199 263.535 361.634 262.593 360.946 260.675C359.096 255.571 357.386 250.383 354.333 245.809C348.83 237.567 345.488 228.459 343.294 218.887C342.677 216.214 343.231 213.696 345.788 212.039C345.223 216.973 347.232 221.284 349.293 225.47C353.959 234.989 359.119 244.276 363.678 253.828C369.525 266.063 371.178 279.048 369.296 292.454C368.657 296.972 365.726 298.377 360.36 297.008C364.739 293.232 366.681 288.426 366.394 282.703Z" fill="#FAD1A4"/>
<path d="M556.642 337.156C558.819 337.96 558.516 341.136 561.048 341.713C562.022 341.938 562.557 343.599 563.863 342.896C565.077 342.249 565.339 341.046 565.182 339.698C565.076 338.859 565.18 337.973 565.791 337.274C570.619 340.549 571.476 353.076 568.792 358.548C568.883 357.005 568.203 356.001 566.734 355.533C564.058 351.43 561.307 347.388 558.724 343.23C557.574 341.415 556.238 339.552 556.642 337.156Z" fill="#DADBDC"/>
<path d="M321.9 239.8C320.269 238.954 320.872 237.896 321.508 236.708C322.746 234.382 324.716 232.776 327.147 232.177C331.798 231.026 336.537 229.759 341.744 231.92C337.633 233.841 333.03 233.537 329.678 236.382C326.354 235.883 324.136 237.844 321.9 239.8Z" fill="#D9A46D"/>
<path d="M517.315 241.425C519.11 242.015 518.357 243.59 518.617 244.766C517.054 244.988 515.501 245.252 513.948 245.436C512.824 245.57 511.49 245.513 511.193 244.248C510.808 242.546 512.538 243 513.382 242.558C514.61 241.935 516.408 243.219 517.315 241.425Z" fill="#FAD1A4"/>
<path d="M512.051 232.866C513.22 233.972 514.445 235.014 514.91 236.637L514.625 236.824C512.354 236.788 510.194 237.098 508.732 239.129L508.756 239.115C507.958 238.895 507.18 238.68 506.378 238.478C507.165 235.663 510.984 235.849 511.757 233.01L512.051 232.866Z" fill="#FAD1A4"/>
<path d="M514.905 236.656C516.275 237.516 516.553 238.934 516.789 240.361C514.789 239.72 512.835 240.002 511.011 240.872C508.887 241.904 508.646 240.813 508.732 239.129L508.709 239.143C510.934 239.048 513.172 238.976 514.602 236.838L514.905 236.656Z" fill="#FAD1A4"/>
<path d="M511.771 233.033C511.003 235.854 507.179 235.686 506.392 238.502C505.441 238.263 504.639 237.903 504.846 236.686C507.272 235.709 508.4 232.246 511.771 233.033Z" fill="#D9A46D"/>
<path d="M340.389 267.841C339.585 269.384 338.05 269.89 336.59 270.495C336.984 268.373 337.206 265.991 340.389 267.841Z" fill="#FAD1A4"/>
<path d="M686.367 394.341C690.904 398.851 695.329 403.492 700.024 407.845C708.838 416.007 715.471 425.823 720.765 436.392C723.101 441.063 725.221 446.117 725.536 451.807C725.965 459.329 731.891 464.467 735.502 470.608C740.007 478.243 745.721 485.409 748.382 493.83C751.063 502.335 757.115 507.127 763.46 512.251C767.546 515.558 771.838 518.678 775.27 522.772C779.554 527.894 780.749 534.261 782.78 540.303C787.203 553.468 790.008 567.001 792.388 580.645C793.083 584.666 792.868 588.755 793.591 592.823C795.934 605.823 801.344 617.432 808.293 628.517C813.641 637.058 819.68 644.979 826.764 652.133C835.144 660.603 844.396 667.884 854.686 673.96C865.838 680.549 877.822 685.484 888.917 692.218C898.191 697.839 908.123 702.417 917.425 708.085C927.109 713.969 936.652 720.015 945.397 727.268C945.592 727.436 945.699 727.721 945.895 727.81C953.791 731.103 953.201 736.843 951.294 743.798C946.525 761.276 942.335 778.899 937.957 796.476C937.606 797.874 936.816 799.282 937.565 800.798C937.439 801.064 937.326 801.353 937.2 801.618C935.322 804.517 935.248 807.968 934.311 811.143C933.637 813.432 933.57 814.565 930.059 813.861C916.841 811.154 903.628 808.507 890.546 805.101C880.924 802.603 872.698 797.78 865.306 791.144C860.177 786.545 855.104 781.879 849.966 777.317C842.461 770.653 835.745 763.215 828.352 756.5C822.348 751.046 816.936 744.967 810.824 739.704C802.07 732.171 793.728 724.027 783.629 718.139C782.679 717.583 781.621 716.9 780.581 716.857C769.09 716.428 762.46 707.862 754.353 701.622C747.36 696.236 741.305 689.877 734.89 683.923C729.105 678.544 722.866 673.784 717.001 668.563C711.9 664.009 705.813 661.33 699.614 658.86C690.24 655.136 682.902 648.831 675.995 641.683C672.614 638.176 668.91 634.926 665.813 631.154C661.012 625.328 655.11 620.415 651.387 613.69C648.949 609.271 645.096 605.903 642.14 601.81C637.661 595.569 634.195 588.77 629.964 582.413C628.423 580.103 628.212 577.314 627.058 574.962C620.904 562.293 617.67 548.573 612.869 535.412C609.49 526.136 608.555 528.518 617.88 525.885C623.087 524.418 627.31 521.653 630.189 516.984C630.38 516.854 630.572 516.723 630.758 516.611C630.66 516.527 630.567 516.425 630.47 516.341C630.376 516.555 630.282 516.769 630.17 516.979C625.425 519.296 620.67 521.57 615.952 523.934C610.735 526.548 605.755 525.535 601.381 521.64C594.869 515.84 590.578 508.695 587.757 500.591C586.274 496.312 585.767 491.783 585.189 487.296C584.908 485.025 586.983 484.813 588.276 484.166C590.455 483.068 592.839 482.339 594.418 480.079C590.691 480.867 586.806 481.418 583.293 482.379C577.27 484.017 573.739 480.791 569.685 477.908C567.398 476.283 566.281 473.702 564.895 471.411C562.037 466.688 558.951 462.086 557.717 456.502C556.882 452.723 554.848 449.298 553.552 445.621C551.609 440.097 551.215 434.328 549.422 428.841C548.678 426.593 549.008 424.019 548.512 421.574C548.053 419.298 550.339 418.96 551.812 419.172C555.817 419.723 559.391 418.361 563.003 417.087C566.162 422.818 570.26 427.972 573.634 433.558C577.804 440.475 582.436 447.13 585.948 454.457C588.748 460.275 592.893 465.401 594.48 471.867C595.5 476.009 598.043 479.146 601.257 482.056C605.086 485.516 609.256 488.566 612.862 492.288C619.066 498.684 624.765 505.43 629.788 512.819C630.961 514.541 632.82 516.297 635.394 516.785C639.156 517.513 642.834 518.814 646.611 519.485C650.35 520.147 654.271 521.033 657.791 518.072C655.1 517.97 652.756 516.806 650.439 515.848C644.785 513.495 638.454 512.023 634.389 507.056C631.562 503.629 628.796 500.198 625.424 497.288C619.624 492.282 614.314 486.427 607.809 482.572C601.499 478.805 598.698 473.779 597.335 467.211C597.546 466.134 597.846 465.099 597.455 463.97C596.456 461.082 597.744 460.375 600.388 461.059C601.005 463.574 602.168 465.888 602.93 468.379C604.295 472.807 606.524 476.797 611.232 478.813C612.826 479.491 614.076 479.488 615.318 478.412C617.465 476.573 619.757 474.868 621.681 472.814C627.864 466.2 634.874 461.657 644.451 462.913C644.299 465.096 645.832 466.492 646.889 468.126C649.332 471.892 653.158 474.182 656.396 477.077C655.919 477.79 655.522 478.583 654.934 479.188C650.04 484.144 646.437 490.118 641.94 495.392C640.865 496.669 640.253 498.081 641.538 499.356C642.652 500.448 644.237 500.609 645.661 499.678C646.468 499.147 647.229 498.486 647.929 497.829C649.633 496.255 651.128 494.41 653.433 493.601C657.984 493.556 659.383 497.694 662.09 500.099C664.712 502.443 666.345 505.966 670.019 506.969C672.653 507.69 675.072 508.873 677.542 509.93C674.091 513.643 674.295 514.804 678.726 517.603C681.685 519.477 685.248 519.5 688.357 520.935C687.95 521.924 687.12 521.834 686.229 521.987C682.097 522.653 677.97 522.429 673.815 522.317C680.21 524.558 686.939 525.08 693.514 525.741C710.338 527.431 727.243 527.456 744.095 525.486C745.793 525.278 749.019 525.771 749.022 523.789C749.024 522.124 745.806 522.149 743.931 522.034C730.012 521.173 721.281 513.864 717.94 500.256C716.372 493.875 716.03 487.424 716.35 480.863C716.547 476.69 715.083 472.099 720.379 469.802C719.033 468.452 716.974 470.73 716.627 468.72C716.168 466.047 715.663 463.085 719.303 461.7C717.583 460.494 714.946 462.865 714.693 459.927C714.426 456.886 717.53 458.498 718.809 457.432C718.143 456.69 717.248 456.702 716.436 456.776C709.892 457.332 704.841 454.318 700.276 450.078C698.235 448.177 697.348 445.476 695.513 443.469C697.857 440.767 702.077 441.649 704.379 438.877C710.817 433.139 711.834 429.33 708.317 422.736C706.874 420.034 705.124 417.453 703.261 415.002C700.035 410.801 696.752 406.428 691.882 404.113C685.739 401.181 682.481 399.629 677.443 404.45C676.948 404.603 676.459 404.738 675.964 404.891C674.249 403.826 674.839 402.11 674.897 400.618C674.931 399.457 675.646 398.189 674.061 397.474C677.721 394.587 681.9 393.892 686.367 394.341Z" fill="#F4BD81"/>
<path d="M517.492 381.859C518.862 379.011 521.773 378.791 524.283 377.875C530.721 379.87 536.154 383.495 541.297 387.802C544.358 390.375 546.774 393.461 549.639 396.104C554.535 400.605 557.191 406.289 559.791 412.117C560.172 412.966 560.143 413.791 559.904 414.663C550.447 417.818 540.189 416.509 533.497 409.058C527.191 402.041 522.285 394.186 519.732 385.019C519.346 383.633 518.937 382.42 517.492 381.859Z" fill="#F4BD81"/>
<path d="M597.381 467.183C598.744 473.751 601.541 478.796 607.856 482.544C614.338 486.413 619.647 492.268 625.47 497.261C628.843 500.17 631.609 503.601 634.436 507.028C638.524 511.981 644.832 513.467 650.486 515.82C652.803 516.778 655.147 517.943 657.838 518.044C654.318 521.006 650.411 520.143 646.658 519.457C642.881 518.786 639.222 517.489 635.44 516.757C632.867 516.269 631.008 514.513 629.835 512.791C624.812 505.402 619.112 498.657 612.908 492.26C609.285 488.534 605.114 485.483 601.304 482.028C598.108 479.123 595.547 475.981 594.526 471.839C592.935 465.392 588.795 460.248 585.995 454.429C582.464 447.098 577.851 440.447 573.681 433.53C570.325 427.948 566.223 422.813 563.049 417.059C564.016 416.212 565.098 415.849 566.352 416.383C568.51 417.103 568.769 419.389 570.054 420.822C571.26 422.176 572.093 423.991 574.14 424.367C575.723 429.662 578.791 434.101 582.405 438.181C585.127 443.286 587.368 448.648 590.879 453.297C591.079 453.922 591.535 454.235 592.132 454.385L592.104 454.338C592.392 459.268 595.395 463.016 597.381 467.183Z" fill="#FAD1A4"/>
<path d="M559.904 414.663C560.138 413.81 560.172 412.966 559.791 412.117C557.168 406.303 554.516 400.601 549.639 396.104C546.774 393.46 544.363 390.356 541.297 387.802C536.154 383.495 530.721 379.87 524.283 377.875C530.012 375.826 535.251 377.777 540.052 380.45C549.041 385.465 554.156 393.987 558.972 402.672C560.936 406.219 562.946 409.737 564.929 413.289C563.412 414.276 561.802 415.001 559.904 414.663Z" fill="#FAD1A4"/>
<path d="M861.744 820.782C856.83 819.507 852.949 816.331 849.539 812.937C846.777 810.2 842.736 808.53 841.547 804.346C848.31 807.73 853.536 813.128 859.07 818.087C859.974 818.909 861.806 818.954 861.744 820.782Z" fill="#FAD1A4"/>
<path d="M293.489 1.14979C292.216 1.24616 291.359 0.554907 290.866 -0.481007C289.726 -2.8888 287.718 -4.52351 285.743 -6.1302C284.214 -7.38657 283.312 -8.84271 283.645 -10.8803C287.521 -7.36852 291.037 -3.53076 293.489 1.14979Z" fill="#DADBDC"/>
<path d="M368.74 96.4113C373.052 97.6338 374.371 102.01 377.353 104.662C381.755 108.604 385.153 113.542 389.686 117.516C393.343 120.715 397.425 123.248 401.11 126.335C402.764 127.722 403.797 129.845 405.11 131.643C399.315 129.77 395.469 125.116 391.071 121.393C383.468 114.962 376.626 107.711 370.363 99.9716C369.464 98.8932 368.486 97.9733 368.74 96.4113Z" fill="#DADBDC"/>
<path d="M406.489 132.782C407.952 133.269 409.79 133.136 410.319 135.133C408.467 135.322 406.943 134.919 406.489 132.782Z" fill="#DADBDC"/>
<path d="M449.116 411.584C448.073 417.627 446.564 423.473 442.646 428.416C440.794 429.002 439.805 428.674 438.861 426.593C435.178 418.371 435.477 409.921 437.274 401.511C439.14 392.82 440.984 384.064 444.958 375.982C445.561 374.766 445.142 373.907 444.206 373.057C434.927 364.619 433.443 353.877 435.187 342.202C436.781 331.599 440.52 321.772 445.302 312.209C447.023 308.755 448.955 307.536 452.624 308.478C449.235 306.813 445.585 305.955 442.514 303.895C433.838 298.106 431.992 289.355 432.54 279.837C432.85 274.661 433.574 269.887 430.213 265.037C427.536 261.172 429.076 256.147 429.768 251.661C429.965 250.402 431.457 250.302 432.54 250.177C437.791 249.554 443.057 248.954 448.189 250.938C445.794 257.394 448.016 262.909 451.456 268.314C454.188 272.589 457.172 276.729 458.705 281.674C460.972 288.985 461.359 296.675 462.576 304.139C464.673 316.938 462.591 329.956 460.407 342.75C459.336 349.063 458.41 355.433 457.628 361.779C456.709 369.221 456.425 376.822 453.002 383.654C448.743 392.16 449.324 401.446 448.231 410.45C448.264 410.795 448.837 411.197 449.116 411.584Z" fill="#F4BD81"/>
<path d="M400.035 260.943C400.124 261.223 400.212 261.502 400.305 261.764C399.614 261.987 399.385 262.425 399.515 263.171C400.459 269.277 401.762 275.295 402.603 281.414C403.366 286.979 404.32 292.571 405.591 298.085C406.347 301.388 408.544 304.478 407.686 308.129C406.055 315.015 404.023 321.76 400.065 327.725C397.192 332.058 395.041 336.831 392.75 341.45C390.581 345.822 388.271 350.198 386.438 354.813C384.492 359.716 384.098 365.149 380.823 369.659C376.909 375.059 373.623 381.113 367.505 384.235C363.753 386.147 362.127 388.831 361.036 392.621C359.392 398.295 361.123 404.817 356.743 409.783C352.276 401.443 352.678 392.821 355.613 384.22C356.741 380.915 359.983 379.767 363.095 378.745C366.445 377.644 370.157 377.705 373.145 375.283C374.587 374.119 375.246 373.075 375.01 371.252C374.729 369.139 374.549 367.012 373.311 365.233C366.933 356.057 369.216 346.579 373.028 337.564C377.644 326.69 384.497 317.091 392.781 308.586C393.766 307.584 394.583 306.62 393.741 305.001C389.335 296.578 388.787 287.558 389.819 278.32C390.305 274.021 390.632 269.722 391.407 265.456C392.121 261.511 393.792 259.75 397.835 260.627C398.553 260.768 399.289 260.834 400.035 260.943Z" fill="#F4BD81"/>
<path d="M449.116 411.584C448.837 411.197 448.264 410.795 448.292 410.445C449.39 401.423 448.804 392.156 453.063 383.65C456.485 376.817 456.751 369.211 457.688 361.774C458.475 355.409 459.397 349.059 460.468 342.746C462.638 329.928 464.734 316.933 462.637 304.134C461.42 296.671 461.033 288.98 458.766 281.67C457.228 276.743 454.23 272.579 451.517 268.309C448.077 262.904 445.854 257.389 448.25 250.933C449.019 251.186 449.793 251.42 450.688 251.724C450.508 250.47 450.355 249.42 450.203 248.371L450.459 248.217C451.154 248.451 451.928 248.527 452.356 249.269C450.168 253.477 453.83 256.261 455.048 259.541C457.93 267.403 460.886 275.283 464.571 282.791C470.79 295.517 470.079 308.522 468.034 321.946C466.342 333.179 462.602 344.115 462.639 355.564C462.655 361.734 463.324 367.909 461.628 373.946C460.181 379.074 458.118 383.889 454.979 388.334C452.302 392.123 451.909 396.921 451.25 401.434C450.761 404.88 450.132 408.251 449.116 411.584Z" fill="#FAD1A4"/>
<path d="M300.636 367.173C303.806 357.402 308.322 348.505 317.059 342.453C318.067 341.755 318.334 340.929 318.536 339.731C320.11 330.154 323.209 321.059 327.897 312.582C330.771 307.376 333.459 302.203 332.874 296.009C332.732 294.526 332.994 293.165 334.418 292.551C335.864 291.923 336.669 293.295 337.522 294.084C339.706 296.12 342.181 297.714 344.641 299.363C344.168 301.167 343.587 302.924 343.226 304.757C341.762 312.319 339.412 319.699 336.596 326.723C332.718 336.395 325.885 344.334 318.107 351.38C314.899 354.282 311.617 357.244 309.379 360.944C307.257 364.415 304.373 366.268 300.636 367.173Z" fill="#F4BD81"/>
<path d="M356.719 409.797C361.081 404.826 359.368 398.309 361.012 392.635C362.103 388.845 363.748 386.166 367.481 384.249C373.599 381.127 376.904 375.078 380.8 369.673C384.075 365.163 384.45 359.725 386.414 354.827C388.248 350.212 390.557 345.836 392.727 341.464C395.013 336.864 397.164 332.091 400.042 327.739C403.999 321.774 406.032 315.029 407.663 308.142C408.521 304.492 406.342 301.407 405.567 298.099C404.296 292.585 403.342 286.993 402.58 281.428C401.739 275.308 400.44 269.272 399.492 263.185C399.381 262.443 399.591 262.001 400.281 261.778C406.017 269.96 405.697 279.753 407.589 288.952C408.479 293.299 409.215 297.628 410.749 301.86C413.007 308.098 411.885 314.14 408.828 320.073C404.92 327.656 400.15 334.725 396.549 342.504C394.464 347.016 392.49 351.555 390.978 356.231C388.324 364.426 384.682 372.056 379.711 379.055C377.375 382.354 374.103 384.803 370.859 386.823C367.004 389.224 365.191 392.496 363.871 396.407C362.486 400.5 362.121 404.869 360.046 408.789C359.171 410.453 358.35 411.039 356.653 410.613C356.7 410.347 356.71 410.072 356.719 409.797Z" fill="#FAD1A4"/>
<path d="M366.394 282.703C366.676 288.445 364.721 293.227 360.341 297.004C347.412 298.513 338.117 291.795 332.632 280.325C332.177 279.378 331.917 278.203 332.604 277.126C336.212 278.628 339.478 280.935 343.731 280.736C345.457 280.654 346.855 281.719 345.579 283.956C344.691 285.517 344.992 286.921 346.876 287.474C348.311 287.914 350.059 288.928 350.864 286.513C351.459 284.7 352.779 284.258 354.387 284.881C356.308 285.601 359.181 284.896 359.672 287.993C359.912 289.56 360.372 291.123 362.181 291.181C364.331 291.226 363.965 289.131 364.331 287.835C364.823 286.036 365.384 284.274 366.394 282.703Z" fill="#F2F1F1"/>
<path d="M300.636 367.173C304.373 366.268 307.281 364.402 309.356 360.958C311.594 357.258 314.899 354.282 318.084 351.394C325.862 344.348 332.694 336.409 336.572 326.737C339.388 319.713 341.743 312.315 343.203 304.771C343.559 302.957 344.126 301.176 344.618 299.377C345.802 299.635 347.08 299.678 348.025 300.57C343.91 306.059 343.641 312.811 342.136 319.115C340.204 327.273 337.774 335.049 331.495 341.025C327.825 344.504 324.462 348.259 321.319 352.247C316.732 358.113 311.307 363.133 305.076 367.258C303.386 368.379 301.599 369.179 299.483 368.449C299.885 368.035 300.249 367.611 300.636 367.173Z" fill="#FAD1A4"/>
<path d="M355.186 412.425C357.208 414.479 354.997 415.153 353.886 415.865C350.087 418.281 342.557 416.924 340.401 413.587C345.441 414.754 350.468 415.502 355.186 412.425Z" fill="#FAD1A4"/>
<path d="M299.436 368.477C297.319 372.485 294.178 370.15 291.796 369.214C290.338 368.629 286.986 367.688 289.014 364.43C291.738 367.712 295.103 369.311 299.436 368.477Z" fill="#FAD1A4"/>
<path d="M321.882 239.795C324.118 237.839 326.349 235.902 329.66 236.377C327.759 239.052 325.08 240.004 321.882 239.795Z" fill="#F4BD81"/>
<path d="M333.251 240.313C334.511 239.004 336.008 239.36 338.475 239.485C336.235 240.746 334.766 240.674 333.288 240.402C333.292 240.383 333.251 240.313 333.251 240.313Z" fill="#F4BD81"/>
<path d="M325.386 241.707C324.918 242.779 324.33 243.543 323.09 243.43C322.992 243.425 322.801 243 322.843 242.832C323.185 241.55 323.979 241.076 325.386 241.707Z" fill="#F4BD81"/>
<path d="M327.06 246.014C327.227 246.135 327.391 246.275 327.558 246.397C327.437 246.564 327.311 246.83 327.166 246.853C327.021 246.876 326.844 246.634 326.677 246.512C326.803 246.326 326.92 246.177 327.06 246.014Z" fill="#F4BD81"/>
<path d="M329.914 245.7C330.12 245.593 330.302 245.5 330.484 245.407C330.553 245.603 330.646 245.785 330.693 245.995C330.702 246.037 330.459 246.214 330.427 246.186C330.24 246.059 330.101 245.905 329.914 245.7Z" fill="#F4BD81"/>
<path d="M331.66 240.726C331.24 240.819 330.797 240.926 330.377 241.018C330.34 240.85 330.317 240.706 330.28 240.538C330.741 240.594 331.184 240.646 331.66 240.726Z" fill="#F4BD81"/>
<path d="M331.646 240.703C332.173 240.577 332.723 240.438 333.251 240.313L333.288 240.402C332.747 240.504 332.206 240.605 331.646 240.703Z" fill="#F4BD81"/>
<path d="M450.207 248.352C450.156 248.24 450.1 248.147 450.049 248.035C450.194 248.091 450.319 248.142 450.464 248.198L450.207 248.352Z" fill="#FAD1A4"/>
<path d="M350.371 300.942C350.096 300.932 349.816 300.941 349.541 300.931C349.816 300.941 350.091 300.951 350.371 300.942Z" fill="#FAD1A4"/>
<path d="M695.532 443.394C697.385 445.406 698.249 448.121 700.294 450.003C704.864 454.225 709.911 457.258 716.455 456.701C717.285 456.633 718.18 456.62 718.828 457.357C717.549 458.424 714.44 456.83 714.711 459.852C714.964 462.79 717.602 460.42 719.321 461.625C715.682 463.01 716.164 465.986 716.645 468.645C716.993 470.655 719.071 468.382 720.398 469.727C715.102 472.024 716.561 476.634 716.369 480.789C716.053 487.331 716.377 493.777 717.959 500.182C721.319 513.794 730.031 521.098 743.95 521.96C745.843 522.079 749.043 522.05 749.041 523.715C749.038 525.697 745.83 525.208 744.114 525.411C727.281 527.386 710.375 527.361 693.533 525.666C686.958 525.005 680.229 524.484 673.833 522.242C677.988 522.354 682.115 522.579 686.248 521.912C687.139 521.759 687.969 521.849 688.376 520.861C691.225 521.517 694 521.362 696.687 520.213C699.622 518.949 702.571 517.707 705.459 516.311C710.238 514.023 711.225 511.198 708.885 506.387C704.192 496.742 698.821 487.422 694.716 477.488C692.456 472.043 690.205 466.64 686.802 461.641C684.559 458.341 682.978 457.924 680.01 459.716C678.445 458.292 677.547 456.658 676.938 454.503C676.14 451.685 675.901 448.77 674.93 446.008C676.939 442.667 676.192 439.565 674.256 436.461C673.404 435.117 672.832 433.605 672.139 432.182C672.302 428.535 670.622 425.516 668.905 422.487C664.019 413.844 666.318 402.725 674.066 397.376C675.651 398.091 674.936 399.359 674.902 400.52C674.862 402.017 674.259 403.709 675.969 404.793C675.209 408.686 673.194 412.363 673.758 416.51C673.446 419.485 674.045 422.391 674.521 425.306C674.647 425.833 674.777 426.342 674.902 426.869L674.911 426.99C674.664 430.576 676.26 433.693 677.646 436.778C680.692 443.59 682.137 444.31 689.618 443.653C691.6 443.496 693.532 442.832 695.532 443.394Z" fill="#D9A46D"/>
<path d="M672.153 432.205C672.842 433.647 673.437 435.145 674.27 436.485C676.211 439.57 676.953 442.69 674.944 446.032C660.4 444.181 650.522 448.38 645.953 463.172C645.463 463.069 644.969 462.984 644.479 462.881C634.902 461.624 627.892 466.167 621.709 472.782C619.785 474.836 617.488 476.559 615.346 478.379C614.104 479.455 612.873 479.463 611.26 478.78C606.552 476.764 604.323 472.774 602.958 468.347C602.191 465.874 601.033 463.541 600.416 461.027C601.521 460.571 602.632 460.097 603.738 459.641C605.254 463.155 607.115 466.398 609.775 469.227C613.151 472.832 614.816 472.834 618.132 469.107C621.742 465.078 624.709 460.53 628.593 456.668C635.21 450.063 643.083 445.559 651.296 441.516C657.586 438.418 663.481 434.447 670.306 432.455C670.936 432.316 671.556 432.293 672.153 432.205Z" fill="#FAD1A4"/>
<path d="M591.344 393.301C591.288 393.128 591.326 392.979 591.475 392.858C591.569 392.802 591.737 392.765 591.755 392.69C591.784 392.499 591.751 392.313 591.761 392.117C592.682 390.266 593.584 388.411 594.505 386.561C597.84 385.912 596.561 382.954 597.31 381.001C597.46 380.563 597.628 380.129 597.778 379.691C601.192 379.201 604.125 379.759 606.92 382.207C614.993 389.291 618.057 396.901 612.105 409.858C611.183 411.867 610.388 413.928 609.542 415.955C603.813 417.608 598.101 416.589 592.375 415.943C590.967 415.788 590.212 414.845 589.668 413.697C588.347 410.986 587.604 408.182 588.41 405.133C589.418 401.203 590.374 397.24 591.344 393.301Z" fill="#F4BD81"/>
<path d="M591.344 393.301C590.351 397.254 589.399 401.198 588.368 405.143C587.563 408.191 588.287 410.99 589.626 413.706C590.194 414.84 590.93 415.779 592.333 415.953C598.054 416.617 603.789 417.622 609.5 415.965C610.95 416.032 612.424 416.085 613.874 416.152C613.696 416.543 613.537 416.94 613.359 417.331C611.003 418.107 608.666 418.888 606.31 419.664C602.388 419.412 598.452 419.216 594.535 418.866C593.332 418.762 592.451 419.036 591.503 419.809C585.63 424.558 582.125 430.458 582.391 438.237C578.782 434.138 575.728 429.723 574.125 424.423C577.424 415.398 582.96 407.57 587.573 399.233C588.723 397.182 589.603 394.945 591.344 393.301Z" fill="#D9A46D"/>
<path d="M613.892 416.157C612.442 416.089 610.968 416.036 609.518 415.969C610.365 413.942 611.16 411.881 612.081 409.872C618.039 396.896 614.97 389.305 606.897 382.221C604.12 379.778 601.169 379.215 597.755 379.705C600.58 376.43 607.637 375.408 612.354 377.545C622.846 382.343 625.303 390.078 619.651 401.763C617.425 406.437 615.526 411.234 613.892 416.157Z" fill="#FAD1A4"/>
<path d="M606.347 419.673C608.703 418.897 611.041 418.116 613.397 417.34C608.866 430.635 603.31 443.672 603.301 458.064C601.884 457.946 600.466 457.827 599.03 457.704C597.589 453.575 598.275 449.426 599.068 445.323C600.772 436.571 604.014 428.246 606.347 419.673Z" fill="#FAD1A4"/>
<path d="M750.065 483.269C747.106 481.316 745.613 478.106 744.539 475.12C742.039 468.107 737.891 461.97 734.878 455.264C733.975 453.253 732.77 451.344 732.609 449.064C736.989 452.147 738.256 457.125 740.55 461.567C742.579 465.487 743.636 470.035 746.202 473.396C748.623 476.542 749.472 479.71 750.065 483.269Z" fill="#DADBDC"/>
<path d="M599.03 457.704C600.447 457.823 601.865 457.941 603.301 458.064L603.422 458.214C603.543 458.442 603.678 458.694 603.799 458.923C603.818 459.165 603.817 459.403 603.775 459.65C602.669 460.106 601.559 460.58 600.453 461.036C597.814 460.333 596.545 461.045 597.521 463.947C597.911 465.076 597.606 466.13 597.4 467.188C595.395 463.016 592.392 459.268 592.132 454.385C593.971 456.453 595.694 458.75 599.03 457.704Z" fill="#D9A46D"/>
<path d="M759.181 495.671C754.736 492.611 751.994 488.294 750.107 483.339C753.866 486.921 758.19 490.069 759.181 495.671Z" fill="#DADBDC"/>
<path d="M778.101 518.607C774.318 515.356 771.039 511.677 768.685 507.239C772.893 510.141 777.049 513.088 778.101 518.607Z" fill="#DADBDC"/>
<path d="M597.31 381.001C596.561 382.954 597.84 385.912 594.505 386.561C595.146 384.561 595.103 382.211 597.31 381.001Z" fill="#FAD1A4"/>
<path d="M603.799 458.923C603.678 458.694 603.543 458.442 603.422 458.214C603.539 458.461 603.678 458.694 603.799 458.923Z" fill="#FAD1A4"/>
<path d="M591.742 392.112C591.751 392.313 591.784 392.499 591.737 392.686C591.718 392.76 591.569 392.802 591.457 392.853C591.578 392.606 591.658 392.368 591.742 392.112Z" fill="#D9A46D"/>
<path d="M514.62 236.842C513.195 238.962 510.952 239.053 508.728 239.148C510.208 237.121 512.349 236.807 514.62 236.842Z" fill="#F4BD81"/>
<path d="M674.554 425.334C674.059 422.414 673.479 419.513 673.791 416.538C676.388 412.908 676.482 408.511 677.48 404.38C682.518 399.559 685.776 401.112 691.919 404.043C696.785 406.376 700.072 410.731 703.299 414.933C705.166 417.365 706.916 419.946 708.354 422.666C711.872 429.26 710.86 433.05 704.417 438.807C701.984 437.283 698.481 437.89 696.876 434.493C696.225 433.14 693.778 432.465 692.615 433.7C690.812 435.586 689.12 435.062 687.232 434.528C685.283 433.998 682.942 434.005 682.843 431.006C682.816 430.246 681.604 429.862 681.039 430.374C678.261 432.987 677.663 430.636 676.793 428.653C676.454 427.874 676.025 427.052 674.967 427.004C674.967 427.004 674.958 426.883 674.962 426.864C675.276 426.249 675.36 425.676 674.554 425.334Z" fill="#F2F1F1"/>
<path d="M674.944 427.018C675.998 427.085 676.43 427.887 676.77 428.667C677.639 430.65 678.219 432.996 681.016 430.388C681.562 429.871 682.793 430.26 682.82 431.02C682.919 434.019 685.26 434.012 687.209 434.542C689.12 435.062 690.813 435.586 692.592 433.713C693.773 432.484 696.202 433.154 696.853 434.507C698.463 437.885 701.966 437.279 704.393 438.821C702.086 441.611 697.871 440.711 695.527 443.413C693.546 442.855 691.614 443.52 689.651 443.681C682.165 444.357 680.725 443.618 677.678 436.806C676.297 433.703 674.697 430.604 674.944 427.018Z" fill="#F2F1F1"/>
<path d="M679.544 508.51C679.128 509.298 678.54 509.824 677.593 509.884C675.128 508.808 672.709 507.625 670.07 506.922C666.396 505.92 664.745 502.392 662.141 500.052C659.453 497.652 658.036 493.509 653.484 493.555C654.567 492.558 655.748 491.725 657.222 491.382C659.684 491.683 660.848 493.601 662.357 495.249C667.27 500.707 671.338 507.32 679.544 508.51Z" fill="#D9A46D"/>
<path d="M659.034 474.39C658.799 475.877 657.716 476.557 656.461 477.054C653.205 474.154 649.398 471.869 646.935 468.098C645.879 466.464 644.341 465.087 644.498 462.886C644.987 462.989 645.482 463.073 645.971 463.177C649.706 467.644 653.641 471.865 659.034 474.39Z" fill="#D9A46D"/>
<path d="M677.462 404.375C676.468 408.487 676.393 412.89 673.772 416.533C673.189 412.382 675.218 408.728 675.983 404.816C676.473 404.682 676.967 404.528 677.462 404.375Z" fill="#FAD1A4"/>
<path d="M630.217 516.951C630.31 516.737 630.404 516.522 630.516 516.313C630.614 516.397 630.707 516.5 630.805 516.584C630.595 516.709 630.408 516.821 630.217 516.951Z" fill="#D9A46D"/>
<path d="M599.03 457.704C595.699 458.731 593.976 456.434 592.132 454.385L592.16 454.432C591.736 454.067 591.331 453.708 590.907 453.343C587.377 448.689 585.16 443.314 582.433 438.228C582.167 430.449 585.686 424.572 591.54 419.818C592.483 419.064 593.346 418.785 594.573 418.875C598.49 419.225 602.425 419.421 606.347 419.673C604.014 428.246 600.772 436.571 599.064 445.341C598.271 449.444 597.589 453.575 599.03 457.704Z" fill="#F4BD81"/>
<path d="M590.888 453.339C591.312 453.703 591.717 454.063 592.141 454.427C591.545 454.277 591.088 453.964 590.888 453.339Z" fill="#D9A46D"/>
<path d="M659.034 474.39C653.641 471.865 649.706 467.644 645.948 463.191C650.518 448.399 660.396 444.2 674.939 446.05C675.91 448.812 676.149 451.727 676.948 454.545C677.556 456.7 678.454 458.334 680.019 459.758C673.947 464.12 667.874 468.483 661.815 472.868C660.947 473.483 660.354 474.583 659.034 474.39ZM676.784 458.588L676.574 458.793L676.807 458.891L676.784 458.588Z" fill="#F4BD81"/>
<path d="M674.554 425.334C675.356 425.694 675.276 426.249 674.934 426.897C674.809 426.37 674.684 425.843 674.554 425.334Z" fill="#FAD1A4"/>
<path d="M679.544 508.51C671.338 507.32 667.27 500.707 662.352 495.268C660.848 493.601 659.703 491.688 657.218 491.4C663.705 487.36 670.644 484.128 677.805 481.585C682.765 479.838 688.446 483.189 691.838 488.859C693.923 492.317 692.963 496.14 689.086 500.519C686.298 503.645 683.096 506.29 679.544 508.51Z" fill="#F4BD81"/>
<path d="M676.784 458.588L676.807 458.891L676.574 458.793L676.784 458.588Z" fill="#D9A46D"/>
<circle cx="255.252" cy="452" r="28" fill="#799D4D"/>
<circle cx="704.762" cy="275.209" r="28" transform="rotate(101.573 704.762 275.209)" fill="#799D4D"/>
<circle cx="126.252" cy="540" r="62" fill="#799D4D"/>
<circle cx="644.43" cy="131.178" r="62" transform="rotate(101.573 644.43 131.178)" fill="#799D4D"/>
<circle cx="165.252" cy="375" r="39" fill="#044B52"/>
<circle cx="798.251" cy="202.486" r="39" transform="rotate(101.573 798.251 202.486)" fill="#044B52"/>
<circle cx="417" cy="698" r="123" fill="#044B52"/>
</g>
<defs>
<clipPath id="clip0_1_2">
<rect width="927" height="842" fill="white"/>
</clipPath>
</defs>
</svg>
